<svg xmlns="http://www.w3.org/2000/svg" xmlns:xlink="http://www.w3.org/1999/xlink" width="420" zoomAndPan="magnify" viewBox="0 0 315 267.749983" height="357" preserveAspectRatio="xMidYMid meet" version="1.0"><defs><clipPath id="e6a0354b8f"><path d="M 0.148438 0 L 314.851562 0 L 314.851562 267.5 L 0.148438 267.5 Z M 0.148438 0 " clip-rule="nonzero"/></clipPath><clipPath id="0ef1f8e0d4"><path d="M 18.082031 0 L 296.820312 0 L 296.820312 267.5 L 18.082031 267.5 Z M 18.082031 0 " clip-rule="nonzero"/></clipPath></defs><g clip-path="url(#e6a0354b8f)"><path fill="#ffffff" d="M 0.148438 0 L 314.851562 0 L 314.851562 267.5 L 0.148438 267.5 Z M 0.148438 0 " fill-opacity="1" fill-rule="nonzero"/><path fill="#ffffff" d="M 0.148438 0 L 314.851562 0 L 314.851562 267.5 L 0.148438 267.5 Z M 0.148438 0 " fill-opacity="1" fill-rule="nonzero"/></g><g clip-path="url(#0ef1f8e0d4)"><path fill="#fdfdfd" d="M 18.082031 0 L 296.820312 0 L 296.820312 267.5 L 18.082031 267.5 Z M 18.082031 0 " fill-opacity="1" fill-rule="nonzero"/></g><path fill="#262951" d="M 174.449219 42.789062 C 176.363281 42.757812 178.066406 43.507812 179.832031 44.207031 L 179.546875 45.90625 L 178.414062 45.90625 L 178.332031 46.363281 C 177.492188 49.191406 175.316406 51.890625 173.660156 54.296875 C 172.472656 56.035156 171.507812 57.816406 170.765625 59.792969 L 171.332031 59.792969 L 171.546875 58.914062 C 171.863281 57.808594 172.375 56.945312 173.015625 55.984375 L 173.347656 55.472656 C 173.972656 54.535156 174.609375 53.605469 175.257812 52.683594 C 176.730469 50.59375 178.058594 48.597656 178.980469 46.191406 L 179.546875 46.191406 C 179.375 47.25 179.074219 48.101562 178.589844 49.058594 L 178.230469 49.785156 C 177.871094 50.402344 177.5 50.792969 177 51.289062 L 176.714844 52.140625 C 178.273438 50.855469 179.074219 49.171875 179.832031 47.324219 C 180.085938 46.390625 180.277344 45.449219 180.398438 44.488281 C 182.589844 44.976562 184.632812 45.730469 186.628906 46.757812 C 186.101562 49.992188 183.949219 52.648438 182.070312 55.234375 C 181.265625 56.34375 180.539062 57.488281 179.832031 58.65625 C 180.972656 57.609375 181.835938 56.386719 182.734375 55.132812 L 183.226562 54.449219 C 185.671875 51.0625 185.671875 51.0625 187.480469 47.324219 L 188.046875 47.324219 C 187.238281 50.257812 185.679688 52.84375 183.902344 55.292969 C 181.859375 58.160156 180.933594 60.886719 180.398438 64.324219 L 180.640625 63.441406 C 180.914062 62.476562 181.253906 61.550781 181.636719 60.625 C 181.75 60.347656 181.863281 60.066406 181.980469 59.78125 C 182.414062 58.867188 182.941406 58.078125 183.511719 57.242188 C 183.710938 56.917969 183.90625 56.59375 184.101562 56.269531 L 184.390625 55.78125 C 184.589844 55.449219 184.785156 55.117188 184.980469 54.785156 C 185.230469 54.367188 185.503906 53.960938 185.78125 53.558594 L 186.347656 53.558594 L 186.683594 52.476562 C 187.207031 50.894531 187.898438 49.398438 188.613281 47.890625 L 189.746094 48.171875 C 189.746094 50.867188 189.746094 50.867188 189.109375 52.210938 L 188.71875 53.042969 C 188.390625 53.714844 188.046875 54.371094 187.691406 55.027344 C 187.121094 56.136719 187 57.136719 186.914062 58.375 L 187.046875 57.902344 C 187.558594 56.238281 188.273438 54.851562 189.195312 53.378906 C 190.097656 51.945312 190.777344 50.683594 191.160156 49.023438 C 193.035156 49.300781 194.554688 50.3125 196.191406 51.21875 L 197.1875 51.753906 L 198.132812 52.277344 L 199 52.753906 C 199.21875 52.925781 199.4375 53.097656 199.660156 53.273438 C 199.921875 54 199.921875 54 199.941406 54.691406 C 198.929688 56.53125 197.324219 57.910156 195.632812 59.117188 C 195.089844 59.476562 195.089844 59.476562 194.84375 60.074219 C 194.804688 60.621094 194.78125 61.171875 194.773438 61.722656 L 194.75 62.613281 C 194.796875 63.484375 194.796875 63.484375 195.207031 64.246094 C 195.957031 65.242188 196.855469 65.757812 197.960938 66.308594 C 198.835938 66.613281 199.425781 66.628906 200.335938 66.484375 C 201.347656 66.242188 202.195312 65.964844 203.03125 65.332031 C 203.707031 64.621094 204.113281 63.996094 204.421875 63.0625 C 204.5625 62.445312 204.675781 61.835938 204.757812 61.207031 L 205.324219 61.207031 C 205.570312 63.875 204.90625 65.855469 203.910156 68.292969 L 203.34375 68.292969 L 203.183594 68.789062 C 202.710938 69.527344 202.199219 69.847656 201.433594 70.253906 C 197.890625 71.941406 197.890625 71.941406 195.976562 72.257812 L 195.765625 73.039062 C 195.410156 73.960938 195.410156 73.960938 194.898438 74.652344 L 194.277344 75.09375 C 193.515625 75.058594 193.515625 75.058594 192.863281 74.808594 L 192.578125 74.242188 L 193.710938 74.242188 L 193.710938 73.675781 L 191.726562 73.960938 C 191.878906 74.523438 191.878906 74.523438 192.292969 75.09375 C 193.167969 75.476562 193.167969 75.476562 194.171875 75.730469 L 195.191406 76.019531 L 195.976562 76.226562 L 195.128906 77.925781 L 195.695312 77.925781 L 195.925781 77.414062 C 196.351562 76.628906 196.902344 76.136719 197.554688 75.535156 C 198.003906 75.046875 198.253906 74.5625 198.527344 73.960938 L 199.09375 73.960938 C 198.675781 75.871094 198.03125 77.253906 196.804688 78.773438 C 195.5625 80.074219 194.339844 80.757812 192.683594 81.378906 L 192.109375 81.601562 C 191.328125 81.90625 190.539062 82.195312 189.746094 82.460938 L 190.261719 82.335938 L 190.949219 82.175781 L 191.625 82.019531 C 192.292969 81.894531 192.292969 81.894531 193.429688 81.894531 L 193.429688 82.460938 C 192.773438 82.695312 192.117188 82.925781 191.460938 83.152344 L 190.871094 83.355469 C 189.820312 83.707031 188.914062 83.941406 187.796875 83.949219 C 187.199219 83.964844 187.199219 83.964844 186.628906 84.160156 C 185.9375 84.726562 185.359375 85.347656 184.753906 86.007812 C 182.96875 87.867188 180.820312 89.207031 178.414062 90.113281 C 179.421875 91.28125 180.445312 92.433594 181.492188 93.566406 C 186.515625 98.996094 190.203125 104.707031 193.566406 111.28125 C 194.992188 114.0625 196.414062 116.835938 198.03125 119.511719 L 198.410156 120.144531 C 198.710938 120.632812 199.042969 121.101562 199.375 121.566406 L 200.226562 121.847656 L 200.265625 121.160156 C 200.40625 118.980469 200.699219 116.910156 201.199219 114.78125 L 201.421875 113.835938 C 203.246094 106.371094 206.070312 99.199219 209.375 92.273438 C 210.023438 90.910156 210.621094 89.527344 211.21875 88.140625 C 212.832031 84.453125 214.746094 80.894531 216.585938 77.320312 C 216.910156 76.691406 217.234375 76.066406 217.554688 75.4375 L 218.175781 74.226562 L 218.464844 73.664062 C 218.871094 72.882812 219.28125 72.144531 219.773438 71.410156 C 220.582031 71.773438 221.222656 72.105469 221.753906 72.824219 C 221.851562 73.417969 221.851562 73.417969 221.753906 74.242188 C 221.429688 75.050781 221.007812 75.800781 220.585938 76.5625 L 220.207031 77.265625 C 219.78125 78.054688 219.351562 78.839844 218.921875 79.625 C 206.933594 101.570312 206.933594 101.570312 202.390625 125.816406 C 202.589844 126.914062 203.296875 127.667969 203.996094 128.507812 C 204.3125 128.90625 204.625 129.304688 204.9375 129.703125 L 205.421875 130.3125 C 206.566406 131.789062 207.59375 133.355469 208.636719 134.902344 C 208.996094 135.429688 209.363281 135.953125 209.734375 136.472656 C 212.597656 140.539062 214.804688 145.011719 215.804688 149.902344 L 215.953125 150.5625 C 216.589844 154.125 216.550781 158.46875 215.390625 161.917969 C 215.160156 162.542969 214.917969 163.164062 214.671875 163.785156 C 214.464844 164.347656 214.261719 164.910156 214.054688 165.476562 C 212.503906 169.625 210.703125 173.640625 208.835938 177.660156 C 207.09375 181.40625 205.445312 185.171875 203.949219 189.027344 C 203.742188 189.558594 203.535156 190.085938 203.324219 190.617188 C 201.703125 194.683594 200.570312 198.851562 199.492188 203.089844 L 199.316406 203.769531 C 199.207031 204.191406 199.101562 204.613281 198.996094 205.039062 C 198.796875 205.808594 198.617188 206.453125 198.132812 207.089844 C 188.320312 214.257812 174.316406 217.875 162.515625 219.292969 C 146.46875 220.964844 130.433594 218.53125 115.667969 212.066406 C 108.398438 208.792969 108.398438 208.792969 107.03125 207.425781 C 107.066406 206.628906 107.066406 206.628906 107.3125 205.726562 C 107.828125 204.988281 107.828125 204.988281 108.445312 204.289062 C 109.082031 203.574219 109.523438 203.070312 109.808594 202.152344 C 109.871094 201.378906 109.667969 200.8125 109.4375 200.082031 C 109.144531 198.855469 109.140625 197.621094 109.296875 196.375 C 109.59375 195.601562 109.945312 195.078125 110.429688 194.390625 L 110.996094 193.539062 C 110.988281 192.960938 110.988281 192.960938 110.710938 192.40625 C 110.175781 191.890625 109.605469 191.460938 109.015625 191.011719 C 108.433594 190.410156 108.058594 189.851562 107.753906 189.070312 C 107.410156 187.691406 107.464844 186.257812 107.453125 184.84375 C 107.425781 181.089844 106.75 178.03125 105.136719 174.644531 L 104.753906 173.828125 C 104.5 173.285156 104.246094 172.742188 103.988281 172.199219 C 103.671875 171.523438 103.359375 170.84375 103.050781 170.164062 C 102.054688 167.980469 100.972656 165.867188 99.804688 163.769531 C 97.585938 159.765625 95.652344 155.730469 93.875 151.507812 C 93.230469 149.980469 92.582031 148.460938 91.863281 146.964844 C 88.480469 139.925781 86.023438 132.308594 84.367188 124.683594 L 84.160156 123.726562 L 83.722656 121.707031 C 82.425781 115.777344 80.5625 110.726562 77.285156 105.589844 C 75.125 102.140625 73.464844 98.398438 72.132812 94.558594 L 71.875 93.824219 C 71.507812 92.707031 71.273438 91.765625 71.394531 90.585938 C 71.585938 89.710938 71.773438 89.046875 72.207031 88.269531 L 72.515625 87.695312 L 72.753906 87.277344 L 73.320312 87.277344 L 73.417969 87.773438 C 74.171875 91.488281 75.136719 94.886719 76.71875 98.328125 L 77.25 99.527344 C 78.183594 101.601562 79.210938 103.574219 80.386719 105.519531 C 81.394531 107.195312 82.328125 108.894531 83.183594 110.65625 L 83.480469 111.253906 C 85.152344 114.785156 85.945312 118.699219 86.746094 122.5 C 88.246094 131.074219 88.246094 131.074219 92.300781 138.566406 L 92.941406 139.359375 C 94.117188 140.742188 95.171875 141.785156 96.832031 142.535156 C 98.066406 142.890625 99.238281 142.972656 100.515625 142.816406 C 106.394531 141.347656 110.675781 137.09375 114.980469 133.078125 L 115.59375 132.503906 C 116.683594 131.476562 117.703125 130.382812 118.644531 129.214844 L 119.316406 128.597656 C 122.21875 125.488281 123.824219 121.160156 125.390625 117.261719 L 125.628906 116.683594 C 126.871094 113.488281 127.289062 110.257812 127.25 106.847656 L 127.242188 105.773438 C 127.128906 98.515625 125.8125 92.082031 122.121094 85.785156 C 121.03125 83.96875 119.835938 82.222656 118.644531 80.476562 C 117.773438 80.628906 117.171875 80.789062 116.378906 81.203125 C 115.109375 81.761719 113.84375 81.746094 112.476562 81.710938 C 111.160156 81.566406 110.121094 81.207031 109.011719 80.476562 C 107.800781 79.363281 107.242188 77.777344 106.746094 76.226562 L 106.746094 75.375 L 107.3125 75.375 L 107.597656 76.207031 L 108.164062 77.078125 C 108.925781 77.382812 109.613281 77.429688 110.429688 77.359375 C 111.253906 77.070312 111.253906 77.070312 111.84375 76.511719 C 112.265625 76 112.265625 76 112.414062 75.375 C 112.324219 74.519531 112.140625 73.980469 111.695312 73.238281 C 110.542969 71.691406 109.3125 70.207031 108.003906 68.785156 C 107.195312 67.875 106.4375 66.929688 105.683594 65.972656 L 105.300781 65.484375 C 104.929688 65.003906 104.5625 64.523438 104.195312 64.042969 L 103.808594 63.539062 C 103.027344 62.5 102.574219 61.617188 102.25 60.339844 C 101.972656 59.425781 101.757812 58.789062 101.136719 58.0625 C 100.542969 57.542969 100.542969 57.542969 99.664062 56.957031 C 100.136719 56.578125 100.609375 56.203125 101.082031 55.824219 L 101.851562 55.207031 L 102.640625 54.601562 L 103.425781 53.984375 C 104.195312 53.558594 104.195312 53.558594 104.929688 53.511719 C 105.613281 53.839844 105.613281 53.839844 106.207031 54.695312 C 106.398438 55.050781 106.582031 55.410156 106.765625 55.769531 C 107.390625 56.980469 107.976562 58.027344 109.011719 58.941406 C 108.839844 58.632812 108.664062 58.328125 108.484375 58.007812 L 107.792969 56.78125 L 107.445312 56.167969 C 106.800781 55.027344 106.1875 53.882812 105.613281 52.707031 C 106.246094 52.339844 106.875 51.972656 107.507812 51.609375 L 108.046875 51.296875 C 109.007812 50.742188 109.949219 50.253906 110.996094 49.875 C 111.855469 51.105469 112.539062 52.347656 113.191406 53.699219 C 114.808594 56.980469 116.558594 60.054688 118.785156 62.964844 C 119.125 63.414062 119.453125 63.867188 119.777344 64.324219 L 119.777344 64.890625 L 120.34375 64.890625 C 120.222656 63.925781 120.074219 62.988281 119.777344 62.058594 C 119.105469 61.546875 119.105469 61.546875 118.359375 61.207031 C 117.828125 60.429688 117.828125 60.429688 117.511719 59.507812 C 117.550781 58.40625 117.6875 57.710938 118.234375 56.753906 L 118.644531 56.109375 C 119.238281 56.148438 119.835938 56.1875 120.433594 56.230469 C 120.765625 56.253906 121.097656 56.277344 121.4375 56.300781 C 122.328125 56.390625 122.328125 56.390625 123.175781 56.675781 L 123.460938 56.109375 L 122.609375 55.824219 L 123.460938 55.539062 L 124.027344 55.824219 L 124.027344 56.675781 L 124.734375 56.757812 C 125.902344 56.992188 126.894531 57.40625 127.972656 57.894531 L 128.554688 58.148438 C 129.511719 58.574219 130.414062 59.023438 131.304688 59.570312 C 132.175781 60.109375 132.175781 60.109375 132.992188 60.183594 L 133.640625 60.144531 L 134.304688 60.113281 L 134.789062 60.074219 L 134.789062 60.640625 L 134.066406 61.101562 C 132.851562 61.882812 131.929688 62.859375 131.109375 64.042969 C 130.878906 64.574219 130.660156 65.113281 130.453125 65.652344 C 130.121094 66.453125 130.121094 66.453125 129.691406 67.160156 C 128.558594 67.992188 127.332031 68.417969 126.007812 68.859375 C 124.761719 68.980469 123.746094 68.988281 122.59375 68.46875 L 122.042969 68.007812 L 122.042969 67.441406 L 121.476562 67.441406 L 121.476562 66.59375 L 120.910156 66.875 L 121.117188 67.324219 C 121.675781 68.546875 122.171875 69.765625 122.609375 71.039062 C 123.15625 72.554688 123.78125 73.726562 124.945312 74.863281 C 126.425781 75.835938 128.046875 76.394531 129.816406 76.519531 C 134.894531 76.445312 139.675781 73.382812 143.929688 70.871094 C 146.125 69.554688 148.261719 68.152344 150.386719 66.730469 C 151.046875 66.289062 151.710938 65.851562 152.371094 65.410156 C 154.539062 63.96875 156.621094 62.507812 158.589844 60.796875 L 159.152344 60.359375 L 159.71875 60.359375 C 159.101562 61.765625 158.074219 62.539062 156.886719 63.476562 C 155.867188 64.214844 154.820312 64.910156 153.769531 65.601562 C 153.472656 65.796875 153.179688 65.992188 152.875 66.191406 C 151.945312 66.800781 151.019531 67.40625 150.085938 68.007812 L 149.203125 68.582031 C 139.132812 75.078125 139.132812 75.078125 133.65625 76.792969 L 132.964844 77.011719 C 130.765625 77.574219 128.527344 77.28125 126.292969 77.078125 L 126.769531 77.867188 C 127.832031 79.628906 128.882812 81.390625 129.886719 83.1875 C 131.027344 85.199219 132.269531 87.148438 133.519531 89.09375 C 134.359375 90.402344 135.191406 91.710938 135.988281 93.042969 C 138.1875 96.703125 140.640625 100.082031 143.289062 103.429688 L 144.023438 104.375 C 147.699219 109.019531 152.011719 112.410156 157.453125 114.765625 C 160.601562 115.980469 163.507812 116.5 166.898438 116.105469 C 168.808594 115.6875 170.660156 114.765625 172.148438 113.507812 C 173.296875 112.121094 174.09375 110.871094 174.449219 109.097656 C 174.765625 105.902344 174.648438 102.699219 173.316406 99.746094 C 172.789062 98.707031 172.234375 97.6875 171.671875 96.667969 C 170.542969 94.574219 169.625 92.402344 168.730469 90.199219 L 168.511719 89.660156 C 168.160156 88.796875 167.808594 87.933594 167.460938 87.070312 C 166.972656 85.871094 166.46875 84.675781 165.949219 83.488281 L 165.527344 82.507812 C 165.207031 81.835938 164.859375 81.179688 164.480469 80.535156 C 163.96875 79.625 163.96875 79.625 163.96875 79.058594 L 163.402344 79.058594 C 161.121094 88.875 161.121094 88.875 160.851562 98.894531 L 160.285156 98.894531 C 158.71875 94.191406 160.300781 88.015625 161.25 83.296875 C 162.160156 78.753906 162.867188 74.183594 163.558594 69.605469 C 163.835938 67.761719 164.117188 65.921875 164.398438 64.082031 L 164.492188 63.476562 C 164.867188 61.015625 165.25 58.558594 165.652344 56.101562 L 165.773438 55.363281 C 165.953125 54.289062 166.132812 53.214844 166.316406 52.140625 C 166.691406 49.875 166.953125 47.632812 167.082031 45.339844 L 166.234375 45.339844 L 165.667969 46.757812 L 165.101562 46.757812 C 165.210938 46.335938 165.332031 45.917969 165.453125 45.5 L 165.652344 44.792969 L 165.949219 44.207031 C 166.546875 43.984375 166.546875 43.984375 167.082031 43.921875 L 168.214844 45.621094 C 169.953125 45.5 171.273438 45.148438 172.75 44.207031 C 173.035156 43.945312 173.320312 43.679688 173.597656 43.410156 Z M 82.421875 31.011719 C 84.8125 31.917969 86.84375 33.527344 88.582031 35.386719 C 90.09375 37.242188 91.183594 39.328125 91.734375 41.65625 C 91.953125 43.882812 91.960938 45.933594 91.132812 48.03125 C 89.996094 50.382812 88.488281 52.320312 86.351562 53.839844 C 84.328125 55.019531 82.1875 55.753906 79.835938 55.824219 C 77.226562 55.566406 74.890625 54.800781 72.753906 53.273438 C 70.328125 51.234375 68.707031 48.957031 67.566406 46.011719 C 66.816406 43.765625 66.703125 42.019531 67.148438 39.679688 C 67.722656 37.464844 68.84375 35.691406 70.402344 34.035156 C 71.996094 32.574219 73.917969 31.328125 76.011719 30.726562 C 78.171875 30.351562 80.3125 30.410156 82.421875 31.011719 M 206.457031 16.4375 C 207.625 16.601562 208.429688 16.984375 209.433594 17.597656 L 210.332031 18.140625 L 211.273438 18.71875 L 212.238281 19.308594 C 212.867188 19.691406 213.492188 20.074219 214.117188 20.457031 C 214.800781 20.875 215.484375 21.28125 216.171875 21.6875 C 217.839844 22.671875 219.460938 23.632812 220.621094 25.21875 C 221.242188 26.328125 221.453125 27.328125 221.597656 28.585938 C 221.535156 30.03125 220.980469 31.308594 220.339844 32.589844 C 219.574219 33.761719 218.707031 34.421875 217.507812 35.136719 C 216.726562 35.398438 216.269531 35.453125 215.46875 35.441406 L 214.390625 35.421875 L 214.816406 36.113281 C 215.253906 37.15625 215.398438 37.835938 215.359375 38.949219 C 215.117188 40.421875 214.453125 41.734375 213.824219 43.074219 L 213.042969 44.789062 L 212.695312 45.542969 C 212.382812 46.214844 212.382812 46.214844 212.125 47.039062 C 210.890625 46.878906 210.089844 46.429688 209.0625 45.746094 L 208.222656 45.195312 L 207.589844 44.773438 C 207.734375 43.648438 207.933594 42.855469 208.546875 41.902344 C 209.421875 40.394531 209.902344 38.847656 210.140625 37.121094 C 210.066406 36.136719 210.066406 36.136719 209.574219 35.421875 C 208.546875 34.535156 207.445312 33.792969 206.300781 33.066406 L 205.816406 32.746094 C 205.289062 32.40625 205.289062 32.40625 204.476562 32.019531 C 203.894531 32.007812 203.894531 32.007812 203.34375 32.304688 C 202.835938 32.96875 202.835938 32.96875 202.402344 33.808594 C 202.148438 34.265625 202.148438 34.265625 201.886719 34.734375 L 201.359375 35.703125 C 201.015625 36.339844 200.667969 36.96875 200.316406 37.601562 L 199.851562 38.453125 C 199.375 39.105469 199.375 39.105469 198.808594 39.371094 C 198.242188 39.390625 198.242188 39.390625 197.328125 38.921875 C 196.992188 38.707031 196.660156 38.492188 196.332031 38.273438 L 195.816406 37.941406 C 195.394531 37.671875 194.976562 37.398438 194.5625 37.121094 C 194.757812 35.992188 195.308594 35.074219 195.871094 34.09375 L 196.207031 33.5 C 199.503906 27.746094 203.011719 22.105469 206.457031 16.4375 M 41.3125 71.976562 C 42.75 72.132812 43.949219 72.460938 45.289062 73.003906 L 45.859375 73.238281 C 46.480469 73.488281 47.101562 73.742188 47.71875 73.996094 C 48.152344 74.171875 48.589844 74.347656 49.023438 74.523438 C 49.9375 74.894531 50.855469 75.269531 51.773438 75.644531 C 52.992188 76.140625 54.214844 76.628906 55.441406 77.121094 C 56.410156 77.507812 57.378906 77.894531 58.347656 78.28125 C 58.816406 78.46875 59.285156 78.65625 59.753906 78.84375 C 60.410156 79.105469 61.0625 79.367188 61.71875 79.632812 L 62.3125 79.867188 C 62.777344 80.054688 63.234375 80.265625 63.6875 80.476562 L 63.972656 81.042969 C 63.730469 81.761719 63.464844 82.46875 63.175781 83.167969 L 62.941406 83.761719 C 62.605469 84.589844 62.34375 85.222656 61.707031 85.859375 C 61.03125 86.03125 61.03125 86.03125 60.179688 86.175781 L 59.210938 86.34375 L 58.160156 86.515625 L 57.082031 86.699219 C 55.945312 86.894531 54.808594 87.085938 53.667969 87.277344 C 52.53125 87.46875 51.394531 87.660156 50.257812 87.855469 C 49.550781 87.976562 48.84375 88.09375 48.136719 88.214844 L 47.160156 88.378906 L 46.304688 88.523438 C 45.601562 88.683594 45.054688 88.90625 44.425781 89.261719 L 44.929688 89.457031 C 46.65625 90.132812 48.378906 90.8125 50.101562 91.5 C 50.742188 91.753906 51.386719 92.007812 52.03125 92.257812 C 52.957031 92.621094 53.878906 92.988281 54.800781 93.355469 L 55.679688 93.695312 L 56.484375 94.023438 L 57.199219 94.304688 L 57.742188 94.644531 C 57.976562 95.195312 57.976562 95.195312 58.023438 95.777344 C 57.742188 96.695312 57.742188 96.695312 57.332031 97.691406 L 56.925781 98.695312 L 56.609375 99.460938 C 55.515625 99.277344 54.554688 98.957031 53.527344 98.546875 L 52.535156 98.148438 L 51.464844 97.714844 L 50.355469 97.269531 C 49.378906 96.875 48.402344 96.484375 47.429688 96.089844 C 46.066406 95.539062 44.703125 94.992188 43.339844 94.445312 C 42.617188 94.152344 41.890625 93.859375 41.167969 93.570312 L 40.152344 93.160156 L 39.171875 92.761719 C 38.496094 92.496094 37.820312 92.246094 37.136719 92.003906 L 36.121094 91.640625 L 35.203125 91.324219 L 34.511719 90.960938 C 34.253906 90.410156 34.253906 90.410156 34.230469 89.828125 C 34.492188 88.929688 34.492188 88.929688 34.882812 87.949219 L 35.269531 86.964844 C 35.644531 86.144531 35.644531 86.144531 36.210938 85.578125 C 36.792969 85.417969 36.792969 85.417969 37.519531 85.289062 L 38.339844 85.140625 L 39.234375 84.984375 L 40.160156 84.820312 C 41.140625 84.644531 42.117188 84.472656 43.097656 84.300781 C 43.746094 84.1875 44.394531 84.070312 45.042969 83.957031 C 48.042969 83.421875 51.042969 82.894531 54.058594 82.460938 L 54.058594 81.894531 L 53.488281 81.804688 C 52.425781 81.558594 51.441406 81.164062 50.433594 80.753906 L 49.792969 80.496094 C 49.121094 80.226562 48.445312 79.953125 47.773438 79.679688 L 46.429688 79.140625 C 45.578125 78.792969 44.722656 78.449219 43.867188 78.105469 C 42.542969 77.570312 41.21875 77.039062 39.894531 76.511719 C 40.066406 74.878906 40.675781 73.472656 41.3125 71.976562 " fill-opacity="1" fill-rule="nonzero"/><path fill="#262950" d="M 155.753906 228.113281 C 156.03125 228.597656 156.03125 228.597656 156.273438 229.230469 L 156.546875 229.933594 L 156.832031 230.695312 L 157.441406 232.269531 L 157.742188 233.054688 C 158.101562 233.992188 158.476562 234.921875 158.851562 235.851562 C 160.480469 239.925781 162.085938 244.007812 163.601562 248.125 C 163.863281 248.808594 164.136719 249.460938 164.4375 250.125 C 164.816406 251.0625 164.816406 251.0625 164.816406 252.199219 L 159.71875 252.199219 C 158.585938 249.929688 158.585938 249.929688 157.734375 247.378906 L 148.671875 247.097656 L 147.820312 249.929688 C 147.546875 250.785156 147.257812 251.632812 146.972656 252.480469 L 141.871094 252.480469 C 142.191406 249.929688 142.191406 249.929688 142.644531 248.65625 L 142.949219 247.792969 L 143.28125 246.875 L 143.625 245.902344 C 143.988281 244.875 144.355469 243.851562 144.722656 242.828125 L 145.4375 240.8125 C 145.792969 239.816406 146.148438 238.824219 146.5 237.828125 C 147.390625 235.335938 148.261719 232.839844 149.117188 230.335938 L 149.378906 229.570312 L 149.609375 228.898438 C 149.804688 228.394531 149.804688 228.394531 150.085938 228.113281 C 150.878906 228.035156 151.664062 227.976562 152.460938 227.933594 L 153.128906 227.890625 C 154.09375 227.832031 154.828125 227.804688 155.753906 228.113281 " fill-opacity="1" fill-rule="nonzero"/><path fill="#262951" d="M 52.925781 53.839844 C 54.378906 53.71875 55.664062 53.96875 57.054688 54.351562 L 57.675781 54.515625 C 58.347656 54.695312 59.019531 54.878906 59.6875 55.058594 C 60.160156 55.1875 60.628906 55.3125 61.097656 55.4375 C 62.078125 55.699219 63.058594 55.964844 64.042969 56.230469 C 65.296875 56.570312 66.550781 56.90625 67.804688 57.246094 C 69.007812 57.566406 70.207031 57.890625 71.410156 58.214844 L 72.101562 58.398438 C 72.746094 58.574219 73.394531 58.746094 74.042969 58.921875 L 74.617188 59.078125 C 75.707031 59.375 76.785156 59.707031 77.851562 60.074219 C 77.71875 61.074219 77.242188 61.726562 76.636719 62.515625 L 76.277344 62.980469 L 75.914062 63.457031 C 75.617188 63.839844 75.320312 64.226562 75.019531 64.609375 L 74.070312 64.359375 L 72.824219 64.042969 L 72.199219 63.878906 C 71.210938 63.625 70.378906 63.476562 69.355469 63.476562 C 68.90625 63.894531 68.90625 63.894531 68.539062 64.480469 L 68.101562 65.117188 L 67.65625 65.796875 C 67.359375 66.230469 67.066406 66.664062 66.769531 67.101562 L 66.351562 67.730469 C 65.957031 68.292969 65.957031 68.292969 65.265625 69.050781 L 64.824219 69.710938 C 64.777344 70.566406 64.777344 70.566406 65.105469 71.410156 C 65.660156 72.242188 66.28125 72.992188 66.914062 73.765625 L 67.371094 74.527344 C 67.371094 75.226562 67.371094 75.226562 67.089844 75.941406 C 66.566406 76.761719 66.566406 76.761719 65.9375 77.589844 L 65.308594 78.429688 L 64.824219 79.058594 C 64.105469 78.773438 63.714844 78.527344 63.222656 77.921875 L 62.753906 77.191406 C 62.566406 76.910156 62.382812 76.632812 62.191406 76.339844 L 61.582031 75.394531 C 61.132812 74.707031 60.683594 74.015625 60.234375 73.328125 L 59.859375 72.757812 C 58.734375 71.046875 57.578125 69.359375 56.417969 67.671875 C 55.847656 66.84375 55.28125 66.015625 54.714844 65.1875 C 54.335938 64.636719 53.957031 64.085938 53.574219 63.535156 C 53.035156 62.757812 52.5 61.976562 51.964844 61.191406 L 51.464844 60.480469 L 51.015625 59.816406 L 50.621094 59.238281 C 50.375 58.65625 50.375 58.65625 50.449219 57.933594 C 50.730469 57.003906 51.167969 56.269531 51.6875 55.453125 L 52.246094 54.535156 Z M 100.230469 214.507812 C 101.515625 214.769531 102.507812 215.386719 103.59375 216.105469 L 104.425781 216.644531 L 105.046875 217.058594 C 104.871094 219.90625 104.445312 222.691406 103.992188 225.503906 L 103.765625 226.9375 C 103.566406 228.183594 103.367188 229.429688 103.167969 230.675781 C 102.964844 231.953125 102.761719 233.230469 102.558594 234.507812 C 102.164062 237.003906 101.765625 239.5 101.363281 241.996094 L 100.515625 242.28125 C 99.820312 241.9375 99.140625 241.566406 98.480469 241.164062 L 97.917969 240.832031 C 97.460938 240.5625 97.003906 240.289062 96.550781 240.011719 C 96.519531 238.617188 96.621094 237.300781 96.832031 235.921875 L 96.992188 234.859375 L 97.117188 234.0625 L 96.347656 233.6875 C 96 233.519531 95.65625 233.347656 95.308594 233.175781 L 94.765625 232.910156 C 93.425781 232.242188 92.171875 231.492188 90.9375 230.652344 C 90.324219 230.328125 90.324219 230.328125 89.621094 230.394531 C 88.691406 230.738281 88.171875 231.246094 87.464844 231.9375 C 86.214844 233.15625 86.214844 233.15625 85.519531 233.417969 L 84.933594 233.496094 C 84.230469 233.160156 83.546875 232.789062 82.882812 232.378906 L 82.324219 232.046875 C 81.871094 231.777344 81.417969 231.503906 80.96875 231.226562 C 81.34375 230.195312 82.011719 229.613281 82.835938 228.917969 L 83.359375 228.484375 L 83.898438 228.027344 C 85.199219 226.9375 86.511719 225.859375 87.832031 224.789062 C 88.714844 224.0625 89.589844 223.328125 90.457031 222.585938 C 91.832031 221.421875 93.214844 220.273438 94.609375 219.140625 C 95.699219 218.242188 96.777344 217.328125 97.847656 216.414062 C 98.261719 216.058594 98.679688 215.710938 99.097656 215.359375 L 99.664062 214.808594 Z M 264.527344 76.558594 L 265.097656 76.792969 C 265.433594 77.359375 265.433594 77.359375 265.714844 78.117188 L 266.039062 78.96875 L 266.375 79.902344 L 266.730469 80.855469 C 266.976562 81.527344 267.222656 82.195312 267.464844 82.863281 C 267.835938 83.886719 268.214844 84.90625 268.59375 85.921875 C 268.835938 86.570312 269.074219 87.222656 269.3125 87.871094 L 269.652344 88.792969 C 270.226562 90.382812 270.636719 91.824219 270.761719 93.511719 C 270.265625 93.710938 269.769531 93.90625 269.273438 94.097656 L 268.4375 94.425781 C 267.644531 94.644531 267.644531 94.644531 267.058594 94.578125 L 266.511719 94.363281 C 266.160156 93.640625 265.859375 92.902344 265.605469 92.144531 L 265.363281 91.464844 C 265.113281 90.75 264.863281 90.03125 264.617188 89.3125 C 264.449219 88.832031 264.277344 88.351562 264.109375 87.871094 C 262.902344 84.449219 262.902344 84.449219 262.546875 83.027344 L 258.015625 84.726562 C 258.40625 85.910156 258.796875 87.09375 259.1875 88.273438 C 259.8125 90.152344 260.476562 92.019531 261.171875 93.875 C 261.414062 94.644531 261.414062 94.644531 261.414062 95.777344 C 260.964844 95.976562 260.519531 96.171875 260.066406 96.363281 L 259.3125 96.691406 C 258.582031 96.914062 258.582031 96.914062 258.015625 96.902344 L 257.449219 96.628906 C 257.136719 96.015625 256.875 95.382812 256.664062 94.730469 L 256.460938 94.148438 C 256.25 93.539062 256.042969 92.921875 255.835938 92.308594 C 255.695312 91.898438 255.550781 91.488281 255.410156 91.078125 C 254.292969 87.847656 254.292969 87.847656 254.046875 86.429688 C 253.46875 86.605469 252.890625 86.78125 252.3125 86.960938 L 251.335938 87.257812 C 250.445312 87.539062 249.554688 87.828125 248.664062 88.128906 C 248.875 89.445312 249.320312 90.640625 249.78125 91.886719 L 250.28125 93.253906 C 250.546875 93.96875 250.808594 94.6875 251.074219 95.402344 C 251.328125 96.09375 251.582031 96.789062 251.835938 97.480469 L 252.078125 98.128906 C 252.390625 98.988281 252.632812 99.675781 252.632812 100.597656 C 252.136719 100.785156 251.640625 100.976562 251.144531 101.164062 L 250.308594 101.480469 C 249.515625 101.730469 249.515625 101.730469 248.382812 101.730469 L 248.195312 101.21875 L 244.480469 91.101562 L 244.15625 90.21875 L 243.847656 89.375 L 243.558594 88.582031 C 243.382812 88.109375 243.199219 87.644531 243.011719 87.179688 C 242.421875 85.730469 242.421875 85.730469 242.480469 84.984375 C 242.558594 84.804688 242.636719 84.628906 242.71875 84.445312 C 243.230469 84.132812 243.230469 84.132812 243.90625 83.890625 L 244.675781 83.609375 L 245.523438 83.316406 L 246.394531 83 C 247.332031 82.664062 248.273438 82.332031 249.214844 82 C 250.171875 81.65625 251.128906 81.3125 252.085938 80.96875 C 252.714844 80.742188 253.347656 80.515625 253.976562 80.289062 C 256.65625 79.332031 259.3125 78.3125 261.949219 77.234375 L 262.730469 76.921875 C 262.941406 76.835938 263.15625 76.746094 263.378906 76.65625 C 263.960938 76.511719 263.960938 76.511719 264.527344 76.558594 M 114.679688 9.636719 C 115.789062 11.910156 115.789062 11.910156 115.882812 13.054688 L 115.8125 13.601562 C 114.402344 14.355469 112.964844 14.980469 111.476562 15.558594 L 110.910156 15.78125 C 110.132812 16.082031 109.355469 16.382812 108.574219 16.679688 C 108 16.902344 107.425781 17.125 106.855469 17.347656 L 105.824219 17.746094 L 105.046875 18.136719 L 104.765625 18.988281 C 105.042969 19.746094 105.042969 19.746094 105.453125 20.542969 C 106.179688 22.015625 106.179688 22.015625 106.179688 22.953125 L 107.066406 22.585938 C 108.15625 22.132812 109.246094 21.6875 110.339844 21.242188 C 110.808594 21.050781 111.28125 20.855469 111.75 20.660156 C 112.429688 20.378906 113.109375 20.101562 113.789062 19.828125 L 114.421875 19.558594 C 115.285156 19.214844 115.980469 18.980469 116.914062 19.019531 L 117.511719 19.269531 C 118.035156 20.214844 118.351562 20.941406 118.382812 22.027344 L 118.359375 22.671875 C 109.21875 26.636719 109.21875 26.636719 108.164062 26.636719 C 108.433594 27.429688 108.703125 28.21875 108.976562 29.011719 L 109.207031 29.691406 L 109.433594 30.34375 L 109.640625 30.949219 C 109.851562 31.511719 109.851562 31.511719 110.429688 32.019531 L 111.367188 31.632812 C 112.519531 31.152344 113.675781 30.679688 114.828125 30.207031 C 115.328125 30 115.828125 29.792969 116.324219 29.585938 C 117.042969 29.289062 117.761719 28.996094 118.480469 28.699219 L 119.152344 28.417969 C 120.246094 27.972656 121.121094 27.644531 122.328125 27.769531 C 122.519531 28.164062 122.707031 28.558594 122.894531 28.957031 L 123.210938 29.625 C 123.480469 30.375 123.503906 30.949219 123.460938 31.738281 C 119.96875 33.269531 116.449219 34.734375 112.910156 36.160156 C 112.460938 36.339844 112.011719 36.523438 111.558594 36.703125 C 110.917969 36.964844 110.28125 37.222656 109.640625 37.476562 L 109.050781 37.714844 C 108.238281 38.039062 107.632812 38.253906 106.746094 38.253906 C 104.550781 33.039062 102.382812 27.8125 100.269531 22.558594 C 100.066406 22.054688 99.863281 21.550781 99.660156 21.046875 C 99.375 20.339844 99.089844 19.632812 98.808594 18.921875 L 98.546875 18.285156 C 98.210938 17.4375 97.964844 16.789062 97.964844 15.871094 L 98.570312 15.632812 C 99.53125 15.257812 100.492188 14.882812 101.453125 14.503906 L 101.984375 14.296875 C 104.027344 13.5 106.0625 12.691406 108.085938 11.851562 L 108.613281 11.632812 C 109.453125 11.285156 110.292969 10.9375 111.128906 10.585938 L 112.039062 10.207031 L 112.839844 9.871094 C 113.546875 9.636719 113.546875 9.636719 114.679688 9.636719 M 220.339844 199.492188 C 221.601562 199.578125 222.664062 200.175781 223.769531 200.746094 L 224.359375 201.042969 C 224.773438 201.253906 225.191406 201.464844 225.605469 201.675781 C 226.695312 202.230469 227.789062 202.78125 228.878906 203.332031 L 229.535156 203.664062 C 232.304688 205.058594 235.101562 206.386719 237.902344 207.707031 L 239.496094 208.464844 C 240.757812 209.0625 242.019531 209.660156 243.285156 210.257812 L 243.285156 211.394531 C 242.828125 211.898438 242.828125 211.898438 242.222656 212.382812 L 241.597656 212.898438 L 241.019531 213.375 C 240.632812 213.746094 240.257812 214.125 239.882812 214.507812 C 238.527344 214.003906 237.335938 213.300781 236.09375 212.566406 L 235.351562 212.242188 C 234.789062 212.285156 234.789062 212.285156 234.21875 212.527344 C 233.675781 212.929688 233.675781 212.929688 233.15625 213.445312 L 232.5625 214.007812 L 231.953125 214.597656 L 231.34375 215.179688 C 230.402344 216.078125 229.46875 216.984375 228.554688 217.910156 C 228.941406 219.175781 229.445312 220.339844 230.023438 221.523438 C 230.300781 222.296875 230.386719 222.761719 230.253906 223.578125 C 229.671875 224.335938 229.671875 224.335938 228.90625 225.082031 L 228.152344 225.839844 L 227.421875 226.410156 L 226.289062 226.410156 L 225.855469 225.363281 C 225.308594 224.03125 224.761719 222.703125 224.214844 221.375 L 223.476562 219.585938 C 222.226562 216.542969 220.96875 213.5 219.65625 210.476562 L 219.371094 209.820312 C 218.9375 208.816406 218.496094 207.8125 218.050781 206.8125 L 217.589844 205.75 L 217.1875 204.835938 C 216.941406 204.023438 216.941406 204.023438 217 203.261719 C 217.332031 202.285156 217.992188 201.652344 218.710938 200.945312 L 219.121094 200.503906 C 219.527344 200.09375 219.527344 200.09375 220.339844 199.492188 M 230.535156 32.304688 C 231.027344 32.375 231.027344 32.375 231.667969 32.589844 C 232.257812 33.105469 232.257812 33.105469 232.875 33.757812 C 233.652344 34.5625 234.425781 35.335938 235.28125 36.058594 C 236.523438 37.125 237.660156 38.289062 238.808594 39.453125 C 240.191406 40.847656 241.648438 42.136719 243.160156 43.390625 L 243.566406 43.921875 C 243.523438 44.589844 243.523438 44.589844 243.285156 45.339844 C 242.761719 45.972656 242.761719 45.972656 242.132812 46.5625 L 241.503906 47.160156 L 241.019531 47.605469 C 239.085938 46.277344 237.480469 44.695312 235.847656 43.019531 C 235.351562 42.511719 234.855469 42.007812 234.355469 41.5 L 233.699219 40.828125 C 233.152344 40.304688 232.570312 39.824219 231.953125 39.390625 C 230.914062 39.816406 230.339844 40.417969 229.617188 41.265625 L 229.007812 41.96875 L 228.554688 42.503906 C 230.617188 45.027344 232.9375 47.417969 235.515625 49.421875 C 235.917969 49.875 235.917969 49.875 236.1875 50.558594 L 236.203125 51.289062 C 235.734375 51.925781 235.734375 51.925781 235.085938 52.511719 L 234.441406 53.109375 L 233.9375 53.558594 C 233.078125 53.175781 232.496094 52.75 231.84375 52.074219 L 231.308594 51.53125 L 230.75 50.953125 C 229.433594 49.617188 228.125 48.304688 226.6875 47.097656 C 226.289062 46.757812 226.289062 46.757812 225.722656 46.191406 C 225.160156 46.199219 225.160156 46.199219 224.585938 46.472656 C 224.054688 46.964844 224.054688 46.964844 223.578125 47.570312 C 222.996094 48.277344 222.414062 48.953125 221.753906 49.589844 C 222.128906 50.414062 222.523438 50.996094 223.164062 51.632812 L 223.667969 52.132812 L 224.199219 52.652344 L 224.742188 53.191406 C 225.816406 54.246094 226.90625 55.265625 228.058594 56.242188 C 228.925781 57 229.730469 57.828125 230.535156 58.65625 C 230.144531 59.539062 229.683594 60.179688 229.015625 60.871094 L 228.511719 61.410156 L 227.988281 61.773438 C 227.453125 61.710938 227.453125 61.710938 226.855469 61.492188 C 226.332031 61.09375 226.332031 61.09375 225.800781 60.582031 L 225.199219 60.011719 L 224.570312 59.402344 L 223.917969 58.78125 C 222.453125 57.375 221.015625 55.941406 219.589844 54.496094 C 218.820312 53.742188 218.019531 53.039062 217.203125 52.339844 C 216.21875 51.46875 215.304688 50.527344 214.390625 49.589844 C 215.25 48.5625 216.109375 47.570312 217.0625 46.632812 C 217.730469 45.976562 218.367188 45.292969 218.976562 44.578125 C 219.855469 43.554688 220.796875 42.605469 221.753906 41.65625 C 222.851562 40.570312 223.898438 39.46875 224.898438 38.292969 C 225.757812 37.332031 226.683594 36.4375 227.601562 35.527344 C 228.636719 34.503906 229.613281 33.429688 230.535156 32.304688 M 64.257812 180.222656 C 65.984375 180.804688 67.5 181.765625 68.789062 183.054688 C 70.277344 184.921875 71.457031 186.878906 72.117188 189.183594 C 72.324219 191.15625 72.132812 192.851562 71.335938 194.675781 C 70.828125 195.402344 70.273438 196.039062 69.636719 196.65625 C 69.007812 196.625 69.007812 196.625 68.222656 196.375 C 67.585938 195.601562 67.585938 195.601562 67 194.65625 L 66.402344 193.707031 L 65.957031 192.972656 L 66.523438 192.140625 C 66.972656 191.335938 67.203125 190.671875 67.265625 189.75 C 67.230469 188.945312 67.09375 188.453125 66.734375 187.730469 C 66.078125 186.707031 65.558594 186.003906 64.539062 185.324219 C 63.988281 185.222656 63.988281 185.222656 63.40625 185.234375 L 62.820312 185.21875 C 62.253906 185.285156 62.253906 185.285156 61.8125 185.675781 L 61.421875 186.171875 C 61.203125 188.277344 62.113281 190.371094 62.839844 192.300781 C 64.417969 196.523438 64.417969 196.523438 64.136719 198.707031 C 63.824219 199.914062 63.539062 200.96875 62.894531 202.042969 C 61.398438 203.410156 59.996094 204.035156 58.03125 204.472656 C 57.007812 204.613281 56.238281 204.582031 55.25 204.28125 C 53.035156 203.371094 51.375 202.105469 49.820312 200.28125 C 48.496094 198.476562 47.363281 196.324219 46.976562 194.105469 C 46.835938 192.429688 46.707031 190.75 47.417969 189.183594 C 48.113281 188.003906 49.082031 187.082031 50.09375 186.171875 C 50.847656 186.472656 51.238281 186.753906 51.78125 187.375 L 52.304688 188.121094 L 52.84375 188.863281 L 53.207031 189.574219 C 53.160156 190.179688 53.160156 190.179688 52.925781 190.707031 L 52.339844 191.503906 C 51.738281 192.367188 51.738281 192.367188 51.648438 193.328125 C 51.839844 194.761719 52.203125 195.964844 52.925781 197.222656 C 53.601562 198.007812 54.304688 198.667969 55.191406 199.207031 C 55.90625 199.433594 55.90625 199.433594 56.609375 199.492188 C 57.371094 199.308594 57.371094 199.308594 58.023438 198.925781 C 58.660156 198.109375 58.660156 198.109375 58.695312 197.113281 C 58.652344 195.394531 58.023438 193.808594 57.476562 192.195312 L 56.847656 190.304688 L 56.566406 189.464844 C 56.050781 187.871094 55.832031 186.433594 56.039062 184.757812 C 56.363281 183.773438 56.796875 183.003906 57.457031 182.207031 C 59.589844 180.425781 61.496094 179.921875 64.253906 180.222656 M 136.855469 5.339844 C 138.308594 6.011719 139.363281 6.992188 140.359375 8.242188 C 140.808594 8.882812 141.132812 9.433594 141.304688 10.203125 L 141.023438 11.335938 L 136.492188 12.183594 L 135.355469 10.484375 C 134.972656 9.964844 134.972656 9.964844 134.507812 9.636719 C 133.332031 9.300781 132.148438 9.257812 130.953125 9.496094 C 130.070312 9.769531 129.355469 10.007812 128.644531 10.605469 C 128.214844 11.070312 128.214844 11.070312 127.992188 11.867188 L 127.992188 12.753906 C 128.539062 13.542969 128.539062 13.542969 129.410156 14.167969 C 130.234375 14.351562 130.929688 14.453125 131.761719 14.503906 C 132.21875 14.546875 132.675781 14.585938 133.128906 14.625 L 133.824219 14.679688 C 139.238281 15.113281 139.238281 15.113281 140.832031 16.058594 C 142.011719 16.996094 142.964844 18.101562 143.679688 19.429688 C 144.023438 20.78125 144.1875 21.828125 143.945312 23.21875 C 143.5 24.707031 143.011719 26.015625 141.949219 27.171875 C 139.941406 28.914062 137.4375 29.625 134.882812 30.210938 C 132.621094 30.585938 130.703125 30.234375 128.535156 29.507812 C 127.179688 28.980469 126.28125 28.320312 125.246094 27.308594 C 124.363281 26.203125 124.070312 24.875 123.742188 23.519531 C 126.710938 22.449219 126.710938 22.449219 128.273438 22.386719 C 128.972656 22.824219 129.203125 23.371094 129.621094 24.085938 C 130.210938 24.988281 130.210938 24.988281 131.160156 25.46875 C 132.675781 25.914062 133.9375 25.976562 135.480469 25.632812 C 136.441406 25.347656 137.226562 25.011719 138.066406 24.460938 C 138.503906 23.851562 138.503906 23.851562 138.546875 23.257812 C 138.570312 22.332031 138.480469 21.5625 138.191406 20.6875 C 136.082031 19.835938 133.695312 19.835938 131.453125 19.644531 C 129.347656 19.4375 127.34375 19.121094 125.441406 18.136719 C 124.457031 17.261719 123.710938 16.386719 123.132812 15.199219 C 122.664062 13.738281 122.691406 12.28125 122.894531 10.769531 C 123.550781 9.191406 124.703125 7.941406 126.027344 6.882812 C 129.125 4.824219 133.285156 4.429688 136.855469 5.339844 M 123.417969 223.769531 C 125.363281 224.589844 127.101562 225.597656 128.433594 227.261719 C 129.105469 228.277344 129.507812 229.160156 129.691406 230.378906 C 129.652344 231.425781 129.546875 232.457031 129.410156 233.496094 C 127.761719 233.34375 126.082031 233.125 124.59375 232.363281 C 124.308594 231.511719 124.308594 231.511719 124.257812 230.554688 L 124.027344 229.527344 C 123.074219 228.554688 122.191406 227.976562 120.910156 227.542969 C 119.855469 227.402344 118.851562 227.386719 117.792969 227.542969 C 116.964844 228.085938 116.964844 228.085938 116.660156 228.960938 C 116.546875 229.820312 116.546875 229.820312 116.945312 230.660156 C 118.191406 231.988281 119.722656 232.871094 121.300781 233.742188 C 123.378906 234.929688 125.40625 236.140625 126.765625 238.164062 C 127.40625 239.382812 127.523438 240.492188 127.503906 241.851562 C 127.359375 243.140625 126.902344 244.261719 126.292969 245.398438 C 125.308594 246.589844 124.117188 247.59375 122.652344 248.144531 C 120.25 248.824219 118.027344 248.558594 115.625 247.960938 C 113.496094 247.292969 111.367188 246.292969 109.710938 244.765625 C 108.707031 243.546875 108.09375 242.066406 107.597656 240.578125 C 107.570312 240.109375 107.558594 239.636719 107.5625 239.164062 L 107.558594 238.417969 C 107.597656 237.746094 107.597656 237.746094 107.878906 236.894531 C 109.628906 237.011719 111.089844 237.3125 112.695312 238.027344 C 113.015625 238.671875 113.015625 239.085938 113.050781 239.800781 C 113.160156 240.769531 113.296875 241.207031 113.792969 242.085938 C 114.683594 243.011719 115.800781 243.394531 117.003906 243.785156 C 118.101562 244.054688 118.9375 244.097656 120.058594 243.980469 C 120.871094 243.769531 120.871094 243.769531 121.476562 243.414062 C 121.839844 242.6875 121.847656 241.992188 121.910156 241.195312 C 121.792969 240.523438 121.792969 240.523438 121.238281 239.917969 C 119.839844 238.625 118.085938 237.726562 116.457031 236.761719 C 114.621094 235.632812 113.097656 234.421875 111.84375 232.644531 C 111.253906 231.355469 111.15625 230.308594 111.195312 228.898438 C 111.296875 227.933594 111.511719 227.226562 112 226.386719 C 113.054688 225 114.296875 223.882812 115.882812 223.152344 C 118.53125 222.800781 120.878906 222.894531 123.417969 223.769531 " fill-opacity="1" fill-rule="nonzero"/><path fill="#262950" d="M 242.191406 180.210938 C 242.660156 180.480469 243.113281 180.773438 243.566406 181.074219 C 242.445312 183.984375 242.445312 183.984375 241.300781 185.039062 C 240.472656 185.1875 239.761719 185.148438 238.925781 185.082031 C 238.140625 184.996094 238.140625 184.996094 237.246094 185.324219 C 236.183594 186.113281 235.453125 187.015625 234.785156 188.15625 C 234.460938 189.015625 234.460938 189.015625 234.503906 189.855469 C 234.699219 190.78125 234.699219 190.78125 235.070312 191.558594 C 235.726562 191.886719 236.285156 192.003906 237.019531 191.988281 C 238.976562 191.5 240.613281 189.425781 242.042969 188.101562 C 243.53125 186.738281 244.917969 185.695312 246.789062 184.933594 C 248.136719 184.699219 249.3125 184.742188 250.648438 185.039062 C 252.03125 185.578125 253.085938 186.472656 254.046875 187.589844 C 254.945312 188.933594 255.390625 190.058594 255.570312 191.644531 C 255.527344 193.886719 254.644531 196.1875 253.539062 198.113281 C 252.1875 200.054688 250.621094 201.800781 248.5625 203 C 247.003906 203.714844 245.535156 203.910156 243.828125 203.855469 C 242.578125 203.683594 241.542969 203.226562 240.449219 202.609375 C 240.667969 201.148438 241.214844 200.109375 242.070312 198.914062 L 242.71875 198.359375 C 243.628906 198.269531 244.386719 198.390625 245.285156 198.542969 C 246.09375 198.683594 246.09375 198.683594 246.78125 198.5 C 247.882812 197.992188 248.589844 197.34375 249.339844 196.390625 C 250.023438 195.378906 250.5625 194.507812 250.71875 193.273438 C 250.777344 192.585938 250.777344 192.585938 250.648438 191.558594 L 250.242188 190.832031 C 249.496094 190.414062 249.199219 190.328125 248.363281 190.335938 C 247.125 190.535156 246.375 191.074219 245.410156 191.859375 C 244.882812 192.320312 244.363281 192.785156 243.851562 193.257812 C 240.066406 196.65625 240.066406 196.65625 237.71875 197.371094 C 236.371094 197.644531 235.195312 197.449219 233.898438 197.03125 C 232.769531 196.546875 232.042969 195.957031 231.28125 194.992188 C 230.496094 193.828125 230.042969 192.847656 229.898438 191.433594 C 229.808594 189.394531 230.183594 187.714844 231.101562 185.890625 C 232.382812 183.8125 233.816406 181.984375 235.929688 180.730469 C 237.945312 179.664062 240.027344 179.238281 242.191406 180.210938 " fill-opacity="1" fill-rule="nonzero"/><path fill="#262951" d="M 178.414062 6.519531 L 179.496094 6.648438 L 180.101562 6.71875 C 180.839844 6.824219 181.53125 7.019531 182.238281 7.246094 L 182.972656 7.476562 L 183.511719 7.652344 C 183.332031 9.371094 182.863281 10.929688 182.335938 12.570312 C 182.15625 13.144531 181.976562 13.71875 181.796875 14.289062 C 181.515625 15.1875 181.230469 16.082031 180.941406 16.976562 C 180.664062 17.84375 180.394531 18.714844 180.121094 19.582031 L 179.863281 20.378906 C 179.300781 22.195312 179.078125 23.890625 179.265625 25.789062 C 179.621094 26.648438 179.957031 27.054688 180.628906 27.683594 C 181.914062 28.453125 183.054688 28.660156 184.539062 28.691406 C 185.308594 28.695312 185.910156 28.675781 186.628906 28.410156 C 187.226562 28.085938 187.226562 28.085938 187.578125 27.496094 C 188.453125 25.675781 189.101562 23.851562 189.671875 21.917969 L 189.949219 20.996094 C 190.238281 20.039062 190.523438 19.078125 190.808594 18.117188 C 191.097656 17.148438 191.386719 16.179688 191.679688 15.214844 C 191.859375 14.613281 192.039062 14.011719 192.21875 13.410156 L 192.460938 12.597656 C 192.53125 12.359375 192.601562 12.121094 192.675781 11.878906 C 192.863281 11.335938 192.863281 11.335938 193.144531 11.050781 C 194.816406 11.171875 196.425781 11.484375 197.960938 12.183594 L 198.242188 12.753906 C 198.113281 13.359375 198.113281 13.359375 197.882812 14.125 L 197.621094 14.992188 L 197.328125 15.929688 L 197.035156 16.898438 C 196.824219 17.578125 196.617188 18.257812 196.40625 18.933594 C 196.089844 19.964844 195.773438 20.996094 195.460938 22.027344 C 195.257812 22.6875 195.054688 23.347656 194.851562 24.007812 L 194.570312 24.933594 C 193.839844 27.269531 193.035156 29.574219 191.375 31.417969 C 190.265625 32.417969 189.226562 33.097656 187.761719 33.4375 C 184.769531 33.730469 182.058594 33.503906 179.265625 32.304688 C 177.507812 31.46875 176.070312 30.464844 174.847656 28.941406 C 174.035156 27.714844 173.691406 26.53125 173.511719 25.082031 C 173.308594 20.816406 175.386719 16.222656 176.644531 12.203125 L 177.160156 10.542969 C 177.578125 9.199219 177.996094 7.859375 178.414062 6.519531 M 76.152344 195.523438 C 76.625 195.585938 76.625 195.585938 77.285156 195.808594 C 78.015625 196.394531 78.015625 196.394531 78.773438 197.101562 L 79.539062 197.808594 L 80.117188 198.359375 C 80 199.035156 79.859375 199.457031 79.453125 200.015625 L 78.964844 200.550781 L 78.421875 201.148438 L 77.851562 201.757812 L 77.316406 202.335938 C 76.765625 202.925781 76.210938 203.511719 75.65625 204.097656 C 74.28125 205.554688 72.90625 207.011719 71.550781 208.488281 L 70.835938 209.261719 C 69.59375 210.617188 69.59375 210.617188 68.789062 212.242188 C 68.675781 213.394531 68.746094 214.316406 69.195312 215.378906 C 69.703125 216.304688 70.285156 216.855469 71.144531 217.46875 C 71.957031 217.957031 72.59375 218.230469 73.515625 218.496094 C 74.457031 218.527344 74.457031 218.527344 75.304688 218.175781 C 76.75 217.242188 77.941406 216.179688 79.0625 214.871094 C 80.070312 213.707031 81.113281 212.582031 82.171875 211.464844 C 83.960938 209.566406 85.730469 207.652344 87.484375 205.726562 C 88.523438 206.308594 89.382812 206.960938 90.265625 207.761719 L 90.941406 208.375 L 91.449219 208.84375 C 91.0625 209.695312 90.617188 210.339844 89.992188 211.035156 L 89.457031 211.632812 C 88.550781 212.625 87.632812 213.605469 86.707031 214.582031 C 85.476562 215.878906 84.25 217.179688 83.054688 218.511719 C 79.464844 222.488281 79.464844 222.488281 76.898438 223.390625 C 75.253906 223.804688 73.816406 223.796875 72.183594 223.335938 C 69.492188 222.320312 67.433594 220.703125 65.566406 218.53125 C 64.351562 216.929688 63.59375 215.265625 63.308594 213.269531 C 63.242188 211.691406 63.566406 210.257812 64.257812 208.84375 C 65.550781 206.816406 67.300781 205.09375 68.933594 203.34375 C 69.496094 202.738281 70.054688 202.132812 70.613281 201.527344 C 71.035156 201.070312 71.457031 200.609375 71.882812 200.152344 C 73.097656 198.835938 74.3125 197.519531 75.527344 196.199219 Z M 250.535156 54.945312 C 252.527344 55.859375 254.210938 57.203125 255.597656 58.894531 C 256.953125 60.816406 257.800781 62.859375 258.085938 65.195312 C 258.191406 67.101562 257.679688 68.839844 256.878906 70.558594 C 256.304688 71.410156 255.707031 72.1875 254.898438 72.824219 L 254.046875 72.824219 C 253.460938 72.121094 253.460938 72.121094 252.84375 71.195312 L 252.21875 70.28125 L 251.78125 69.425781 C 251.828125 68.816406 251.828125 68.816406 252.066406 68.292969 L 252.277344 67.753906 L 252.507812 67.210938 C 252.921875 66.101562 253.0625 65.234375 252.914062 64.042969 C 252.5625 62.960938 252.082031 62.089844 251.296875 61.261719 C 250.515625 60.574219 249.945312 60.125 248.949219 59.792969 C 246.886719 59.613281 245.015625 59.65625 243.117188 60.53125 C 241.074219 61.710938 239.394531 63.144531 238.183594 65.175781 C 237.804688 66.394531 237.789062 67.59375 237.902344 68.859375 C 238.175781 70.066406 238.609375 70.945312 239.371094 71.921875 C 240.355469 72.691406 241.195312 73.21875 242.433594 73.394531 C 243.773438 73.292969 245.082031 73.085938 246.398438 72.824219 C 246.78125 73.421875 247.15625 74.015625 247.53125 74.613281 L 247.859375 75.125 C 248.144531 75.578125 248.40625 76.042969 248.664062 76.511719 L 248.664062 77.359375 C 246.363281 78.273438 244.351562 78.761719 241.867188 78.492188 C 240.269531 78.230469 239.019531 77.710938 237.707031 76.757812 C 235.609375 74.984375 234.367188 73.042969 233.355469 70.5 C 232.714844 68.609375 232.574219 66.714844 232.933594 64.746094 C 233.535156 62.492188 234.648438 60.472656 236.238281 58.765625 C 238.25 56.886719 240.585938 55.316406 243.285156 54.691406 C 243.503906 54.640625 243.726562 54.585938 243.953125 54.535156 C 246.136719 54.160156 248.433594 54.214844 250.535156 54.945312 M 164.140625 4.210938 C 165.78125 4.996094 166.789062 5.855469 167.878906 7.332031 C 168.636719 8.476562 169.136719 9.410156 169.351562 10.769531 C 169.269531 11.242188 169.175781 11.714844 169.066406 12.183594 C 168.476562 12.199219 167.886719 12.210938 167.296875 12.222656 L 166.300781 12.242188 C 165.382812 12.183594 165.382812 12.183594 164.746094 11.972656 C 164.144531 11.542969 163.847656 11.117188 163.472656 10.484375 L 163.105469 9.882812 C 162.835938 9.351562 162.835938 9.351562 162.835938 8.785156 L 162.269531 8.785156 L 162.269531 8.21875 C 159.667969 7.675781 159.667969 7.675781 157.046875 7.792969 C 155.804688 8.316406 154.917969 8.882812 154.054688 9.917969 C 152.789062 12.132812 152.550781 14.203125 152.546875 16.71875 C 152.578125 18.574219 152.796875 20.199219 153.769531 21.820312 C 154.488281 22.71875 155.242188 23.296875 156.292969 23.757812 C 157.539062 24.140625 158.710938 24.128906 159.992188 23.9375 C 160.796875 23.75 161.339844 23.46875 161.984375 22.953125 C 163.0625 21.84375 163.480469 20.710938 163.96875 19.269531 C 164.710938 19.261719 165.453125 19.257812 166.199219 19.253906 L 166.839844 19.246094 C 168.4375 19.238281 168.4375 19.238281 169.066406 19.554688 C 168.957031 21.507812 168.390625 22.984375 167.367188 24.652344 C 166.660156 25.46875 166.660156 25.46875 165.949219 26.070312 L 165.332031 26.65625 C 163.5625 27.875 161.578125 28.492188 159.453125 28.664062 C 157.148438 28.765625 154.871094 28.210938 152.796875 27.222656 C 150.773438 26.101562 149.574219 24.640625 148.386719 22.671875 C 147 19.792969 146.769531 17.046875 146.972656 13.886719 C 147.300781 11.328125 148.289062 9.164062 149.804688 7.085938 C 151.164062 5.589844 152.699219 4.355469 154.621094 3.683594 C 157.773438 2.765625 161.105469 2.957031 164.140625 4.210938 M 184.648438 223.292969 C 184.4375 224.605469 183.992188 225.792969 183.53125 227.03125 L 183.027344 228.390625 C 182.765625 229.105469 182.503906 229.816406 182.238281 230.523438 C 181.984375 231.214844 181.730469 231.902344 181.476562 232.59375 L 181.234375 233.234375 C 180.851562 234.285156 180.515625 235.203125 180.679688 236.328125 C 181.136719 236.851562 181.632812 237.335938 182.167969 237.78125 C 182.484375 238.054688 182.796875 238.332031 183.109375 238.605469 L 183.601562 239.027344 C 184.339844 239.671875 185.058594 240.339844 185.78125 241.003906 C 186.664062 241.820312 187.554688 242.628906 188.449219 243.433594 L 188.925781 243.863281 C 189.230469 244.136719 189.535156 244.410156 189.84375 244.679688 C 190.199219 245.003906 190.539062 245.339844 190.878906 245.679688 L 190.878906 246.246094 C 190.054688 246.5 189.226562 246.746094 188.398438 246.992188 L 187.691406 247.210938 L 187.003906 247.410156 L 186.375 247.597656 C 185.78125 247.664062 185.78125 247.664062 185.167969 247.417969 C 183.265625 246.242188 181.714844 244.476562 180.175781 242.871094 C 179.441406 242.121094 178.800781 241.582031 177.847656 241.144531 L 177.621094 242.210938 C 176.273438 248.203125 176.273438 248.203125 175.015625 250.214844 C 174.332031 250.773438 173.699219 251.011719 172.835938 251.1875 C 171.667969 251.339844 170.527344 251.351562 169.351562 251.347656 C 169.808594 249.429688 170.414062 247.582031 171.097656 245.734375 L 171.34375 245.066406 C 171.6875 244.144531 172.03125 243.222656 172.375 242.300781 C 172.632812 241.621094 172.882812 240.941406 173.132812 240.261719 L 173.375 239.632812 C 173.785156 238.558594 173.785156 238.558594 173.785156 237.429688 C 173.542969 236.738281 173.199219 236.417969 172.660156 235.925781 L 172.074219 235.382812 L 171.457031 234.824219 C 171.261719 234.640625 171.066406 234.460938 170.863281 234.273438 C 169.300781 232.835938 167.714844 231.421875 166.082031 230.0625 L 165.527344 229.597656 L 164.949219 229.125 L 164.535156 228.679688 L 164.535156 227.828125 C 165.210938 227.636719 165.890625 227.449219 166.570312 227.261719 L 167.148438 227.097656 C 169.125 226.558594 169.125 226.558594 170.199219 226.695312 C 170.871094 227.214844 170.871094 227.214844 171.558594 227.933594 L 172.308594 228.710938 L 173.085938 229.527344 C 173.59375 230.0625 174.105469 230.59375 174.621094 231.121094 L 175.304688 231.84375 C 175.488281 232.011719 175.675781 232.183594 175.863281 232.363281 L 176.429688 232.363281 L 176.644531 231.671875 C 176.90625 230.828125 177.171875 229.984375 177.441406 229.140625 C 177.558594 228.773438 177.671875 228.410156 177.785156 228.042969 C 177.945312 227.515625 178.117188 226.992188 178.285156 226.46875 L 178.585938 225.511719 C 178.980469 224.710938 178.980469 224.710938 179.691406 224.191406 C 181.265625 223.457031 182.914062 223.207031 184.648438 223.292969 M 200.507812 215.359375 C 200.949219 216 201.324219 216.628906 201.695312 217.308594 C 201.945312 217.75 202.199219 218.1875 202.449219 218.628906 L 202.875 219.371094 C 203.769531 220.910156 204.707031 222.417969 205.644531 223.933594 L 206.207031 224.84375 L 206.761719 225.742188 L 207.308594 226.628906 C 207.710938 227.277344 208.113281 227.925781 208.519531 228.570312 L 208.835938 229.082031 C 209.132812 229.550781 209.425781 230.023438 209.722656 230.496094 C 210.140625 231.226562 210.140625 231.226562 210.140625 231.796875 C 212.554688 230.554688 214.839844 229.125 217.125 227.660156 L 217.875 227.183594 L 218.546875 226.753906 C 219.242188 226.390625 219.847656 226.242188 220.621094 226.128906 C 220.910156 226.519531 221.191406 226.917969 221.472656 227.316406 L 221.949219 227.980469 C 222.320312 228.679688 222.320312 228.679688 222.417969 229.378906 L 222.320312 230.09375 C 221.84375 230.535156 221.84375 230.535156 221.167969 230.910156 L 220.40625 231.34375 L 219.578125 231.796875 C 219.007812 232.117188 218.4375 232.441406 217.867188 232.765625 L 216.976562 233.269531 C 215.566406 234.078125 214.191406 234.9375 212.816406 235.796875 C 211.394531 236.683594 211.394531 236.683594 210.710938 237.105469 C 210.242188 237.398438 209.789062 237.710938 209.335938 238.027344 L 208.726562 238.3125 C 208.164062 238.113281 208.164062 238.113281 207.589844 237.746094 C 207.210938 237.253906 207.210938 237.253906 206.867188 236.660156 L 206.472656 235.984375 L 206.050781 235.25 C 205.746094 234.726562 205.441406 234.207031 205.136719 233.683594 L 204.660156 232.871094 C 203.941406 231.652344 203.191406 230.449219 202.441406 229.246094 C 200.160156 225.578125 197.929688 221.886719 195.695312 218.195312 C 196.5 217.363281 197.265625 216.734375 198.261719 216.140625 L 198.996094 215.691406 C 199.660156 215.359375 199.660156 215.359375 200.507812 215.359375 " fill-opacity="1" fill-rule="nonzero"/><path fill="#fefefe" d="M 79.550781 35.421875 C 81.304688 35.9375 82.578125 36.9375 83.890625 38.183594 C 85.179688 39.542969 86.257812 40.972656 86.804688 42.789062 C 87.058594 44.070312 87.066406 45.296875 86.753906 46.570312 C 86.371094 47.585938 85.957031 48.289062 85.171875 49.046875 C 84.261719 49.773438 83.492188 50.355469 82.386719 50.722656 C 80.828125 50.863281 79.246094 50.960938 77.800781 50.296875 C 75.90625 49.171875 74.355469 47.746094 73.195312 45.871094 C 72.382812 44.390625 71.882812 43.121094 71.78125 41.425781 C 71.808594 40.355469 71.992188 39.566406 72.472656 38.609375 C 73.265625 37.328125 74.292969 36.464844 75.585938 35.703125 C 76.914062 35.261719 78.167969 35.269531 79.550781 35.421875 " fill-opacity="1" fill-rule="nonzero"/><path fill="#262951" d="M 44.992188 136.300781 C 46.464844 136.929688 47.617188 137.949219 48.675781 139.132812 C 49.421875 140.210938 49.75 141.214844 49.914062 142.511719 C 49.984375 144.203125 49.796875 145.574219 49.011719 147.078125 C 48.1875 148.441406 47.359375 149.351562 45.984375 150.148438 C 44.527344 150.820312 43.21875 150.941406 41.625 150.867188 C 40.308594 150.695312 39.296875 150.359375 38.195312 149.617188 C 37.132812 148.789062 36.242188 147.933594 35.597656 146.738281 C 35.015625 145.191406 34.84375 143.601562 35.078125 141.96875 C 35.542969 140.464844 36.242188 139.132812 37.34375 138 C 39.53125 136.125 42.203125 135.441406 44.992188 136.300781 M 261.429688 136.316406 C 263.113281 137.03125 264.351562 138.28125 265.484375 139.683594 C 266.140625 140.921875 266.5 142.03125 266.523438 143.441406 C 266.40625 145.066406 265.984375 146.542969 265.097656 147.917969 C 264.097656 149.023438 263.113281 149.949219 261.726562 150.527344 C 259.996094 150.972656 258.183594 150.984375 256.4375 150.585938 C 254.914062 150.007812 253.847656 149.042969 252.820312 147.792969 C 252.03125 146.582031 251.675781 145.382812 251.5 143.953125 C 251.453125 142.628906 251.691406 141.46875 252.207031 140.25 C 252.992188 138.828125 254.15625 137.808594 255.464844 136.867188 C 257.324219 135.804688 259.398438 135.675781 261.429688 136.316406 M 191.753906 219.71875 C 192.597656 220.433594 192.914062 221.378906 193.320312 222.382812 L 193.605469 223.066406 C 193.917969 223.808594 194.222656 224.550781 194.527344 225.296875 C 194.738281 225.808594 194.949219 226.320312 195.164062 226.832031 C 195.492188 227.613281 195.816406 228.398438 196.140625 229.183594 C 196.851562 230.894531 197.578125 232.605469 198.320312 234.304688 L 198.878906 235.597656 C 199.144531 236.207031 199.410156 236.816406 199.679688 237.425781 C 199.921875 237.984375 200.164062 238.546875 200.40625 239.105469 L 200.820312 240.054688 C 201.078125 240.863281 201.078125 240.863281 201.03125 241.507812 L 200.792969 241.996094 C 200.160156 242.347656 199.503906 242.65625 198.828125 242.917969 L 198.273438 243.148438 C 196.925781 243.695312 196.925781 243.695312 196.261719 243.695312 C 195.417969 241.734375 194.574219 239.773438 193.734375 237.8125 C 193.34375 236.902344 192.949219 235.988281 192.558594 235.078125 C 190.632812 230.601562 188.734375 226.113281 186.914062 221.59375 C 187.355469 221.367188 187.796875 221.144531 188.242188 220.921875 L 188.988281 220.542969 C 190.988281 219.578125 190.988281 219.578125 191.753906 219.71875 " fill-opacity="1" fill-rule="nonzero"/><path fill="#fefefe" d="M 209.007812 22.671875 C 210.230469 22.929688 211.191406 23.53125 212.246094 24.175781 L 212.808594 24.511719 C 213.871094 25.152344 214.871094 25.816406 215.804688 26.636719 C 216.089844 27.203125 216.089844 27.203125 216.113281 27.746094 C 216.050781 28.722656 215.957031 29.5 215.457031 30.351562 C 215.027344 30.886719 214.65625 31.328125 214.105469 31.738281 C 213.351562 31.976562 212.859375 32.058594 212.082031 31.890625 C 209.785156 30.945312 207.710938 29.648438 205.609375 28.335938 C 205.960938 27.710938 206.316406 27.085938 206.671875 26.460938 L 206.96875 25.929688 C 207.605469 24.816406 208.285156 23.730469 209.007812 22.671875 " fill-opacity="1" fill-rule="nonzero"/><path fill="#1a2960" d="M 154.902344 227.828125 L 155.753906 228.113281 C 156.03125 228.597656 156.03125 228.597656 156.273438 229.230469 L 156.546875 229.933594 L 156.832031 230.695312 L 157.441406 232.269531 L 157.742188 233.054688 C 158.101562 233.992188 158.476562 234.921875 158.851562 235.851562 C 160.605469 240.242188 162.324219 244.648438 163.96875 249.082031 C 164.25 249.835938 164.535156 250.59375 164.816406 251.347656 L 162.835938 251.632812 C 162.199219 250.722656 161.859375 249.855469 161.558594 248.796875 C 161.257812 247.726562 160.875 246.910156 160.285156 245.964844 L 160.054688 245.121094 C 159.582031 243.394531 158.820312 241.761719 158.121094 240.113281 C 157.480469 238.578125 156.929688 237.054688 156.488281 235.449219 C 156.367188 234.914062 156.367188 234.914062 156.035156 234.628906 C 156.023438 234.15625 156.023438 233.683594 156.035156 233.210938 L 155.46875 233.210938 L 155.375 232.726562 L 155.238281 232.097656 L 155.109375 231.46875 L 154.902344 230.945312 L 154.054688 230.660156 L 154.210938 230.007812 C 154.402344 229.21875 154.402344 229.21875 154.054688 228.394531 Z M 154.902344 227.828125 " fill-opacity="1" fill-rule="nonzero"/><path fill="#9294ac" d="M 119.210938 57.242188 L 120.171875 57.3125 L 121.425781 57.402344 L 122.058594 57.449219 C 122.996094 57.511719 123.691406 57.542969 124.59375 57.242188 C 126.21875 57.679688 127.652344 58.4375 128.976562 59.464844 C 129.449219 59.839844 129.449219 59.839844 130.207031 60.214844 C 130.824219 60.640625 130.824219 60.640625 131.195312 61.402344 L 131.390625 62.058594 C 131.074219 62.449219 131.074219 62.449219 130.542969 62.910156 L 129.65625 63.191406 L 128.84375 63.476562 L 128.558594 64.324219 L 129.125 64.324219 L 129.125 63.757812 L 129.976562 64.042969 L 129.410156 65.742188 L 128.714844 65.847656 L 127.796875 65.988281 L 126.890625 66.128906 C 126.0625 66.296875 125.371094 66.5625 124.59375 66.875 C 123.792969 66.988281 123.148438 66.941406 122.328125 66.875 C 121.839844 66.527344 121.839844 66.527344 121.476562 66.023438 C 121.375 65.40625 121.375 65.40625 121.386719 64.734375 L 121.390625 64.058594 C 121.433594 63.769531 121.433594 63.769531 121.476562 63.476562 L 122.042969 62.910156 C 122.714844 62.996094 122.714844 62.996094 123.460938 63.191406 L 124.113281 63.351562 L 124.59375 63.476562 L 124.308594 62.339844 L 125.160156 62.339844 L 125.726562 64.042969 L 125.441406 64.324219 L 126.574219 64.609375 L 126.007812 62.625 C 126.421875 62.152344 126.761719 61.820312 127.335938 61.5625 C 128.339844 61.453125 129.261719 61.625 130.257812 61.773438 C 129.804688 61.203125 129.804688 61.203125 129.125 60.640625 C 128.128906 60.292969 128.128906 60.292969 127.140625 60.074219 L 126.292969 59.792969 L 125.65625 59.949219 C 124.835938 60.082031 124.277344 59.988281 123.488281 59.738281 C 122.027344 59.175781 120.609375 58.507812 119.210938 57.808594 Z M 119.210938 57.242188 " fill-opacity="1" fill-rule="nonzero"/><path fill="#262951" d="M 49.242188 46.757812 L 50.09375 47.039062 C 50.792969 47.902344 51.191406 48.628906 51.507812 49.695312 C 51.507812 50.796875 51.402344 51.445312 50.882812 52.40625 C 49.773438 53.683594 48.164062 54.457031 46.691406 55.257812 L 46.785156 55.773438 C 46.886719 56.460938 46.96875 57.113281 46.976562 57.808594 C 46.570312 58.535156 46.570312 58.535156 46.125 58.941406 C 45.601562 58.871094 45.601562 58.871094 44.992188 58.65625 C 44.425781 57.878906 44.121094 57.027344 43.859375 56.109375 C 43.777344 55.210938 43.886719 54.742188 44.144531 53.839844 C 44.765625 53.019531 45.398438 52.519531 46.285156 51.996094 C 47.066406 51.519531 47.742188 51.089844 48.394531 50.441406 C 48.558594 49.644531 48.53125 49.042969 48.410156 48.238281 C 48.402344 48.03125 48.398438 47.820312 48.394531 47.605469 C 48.808594 47.097656 48.808594 47.097656 49.242188 46.757812 " fill-opacity="1" fill-rule="nonzero"/><path fill="#9496ae" d="M 187.761719 51.007812 L 188.613281 51.289062 C 187.863281 52.898438 187.105469 54.503906 186.347656 56.109375 L 186.089844 56.652344 C 185.871094 57.113281 185.648438 57.578125 185.425781 58.039062 L 185.050781 58.824219 C 184.648438 59.507812 184.648438 59.507812 184.085938 60.050781 C 182.90625 61.269531 182.421875 63.042969 181.8125 64.609375 L 181.527344 65.339844 C 180.71875 67.667969 180.460938 70.363281 180.792969 72.808594 C 181.34375 74.898438 182.535156 76.699219 184.042969 78.226562 L 184.648438 78.777344 C 183.816406 78.679688 183.382812 78.40625 182.679688 77.925781 C 181.460938 76.855469 180.765625 75.472656 180.183594 73.976562 C 179.214844 70.722656 180.015625 67.277344 180.679688 64.042969 L 180.867188 63.085938 C 181.492188 60.222656 182.914062 57.917969 184.558594 55.527344 C 184.867188 55.066406 185.148438 54.589844 185.425781 54.105469 L 185.78125 53.558594 L 186.347656 53.558594 L 186.578125 52.761719 C 186.914062 51.855469 186.914062 51.855469 187.371094 51.324219 Z M 187.761719 51.007812 " fill-opacity="1" fill-rule="nonzero"/><path fill="#fefefe" d="M 152.636719 234.628906 L 153.488281 234.914062 C 153.816406 235.601562 153.816406 235.601562 154.128906 236.511719 L 154.46875 237.5 L 154.816406 238.542969 C 154.933594 238.882812 155.050781 239.222656 155.171875 239.574219 C 156.035156 242.121094 156.035156 242.121094 156.035156 243.414062 L 150.085938 243.414062 C 150.28125 242.042969 150.460938 241.019531 150.894531 239.75 L 151.199219 238.839844 L 151.519531 237.90625 L 151.84375 236.949219 C 152.109375 236.175781 152.371094 235.402344 152.636719 234.628906 M 56.609375 59.507812 C 58.425781 59.675781 60.070312 60.097656 61.8125 60.640625 L 62.585938 60.875 C 64.445312 61.445312 64.445312 61.445312 65.105469 61.773438 C 64.933594 62.96875 64.253906 63.855469 63.582031 64.820312 C 63.46875 64.992188 63.355469 65.164062 63.242188 65.335938 C 62.941406 65.773438 62.609375 66.183594 62.273438 66.59375 L 61.421875 66.59375 C 61.066406 66.214844 61.066406 66.214844 60.71875 65.691406 L 60.328125 65.109375 L 59.917969 64.484375 L 59.5 63.859375 C 59.101562 63.261719 58.703125 62.660156 58.308594 62.058594 L 57.261719 60.5 C 57.042969 60.167969 56.824219 59.839844 56.609375 59.507812 M 99.097656 221.3125 L 99.664062 221.3125 C 99.503906 223.292969 99.203125 225.210938 98.796875 227.15625 L 98.636719 227.933594 C 98.507812 228.5625 98.378906 229.1875 98.25 229.8125 C 96.890625 229.648438 95.910156 229.0625 94.761719 228.378906 C 94.578125 228.269531 94.394531 228.164062 94.207031 228.054688 C 93.757812 227.789062 93.3125 227.527344 92.867188 227.261719 L 92.867188 226.695312 C 93.304688 226.300781 93.765625 225.925781 94.230469 225.5625 C 95.707031 224.382812 97.09375 223.136719 98.472656 221.839844 Z M 222.886719 206.007812 C 224.011719 206.179688 224.867188 206.53125 225.867188 207.0625 L 226.746094 207.527344 L 227.652344 208.011719 L 228.574219 208.496094 C 229.324219 208.894531 230.070312 209.292969 230.820312 209.691406 C 230.289062 210.863281 229.496094 211.605469 228.554688 212.457031 L 228.085938 212.890625 C 227.683594 213.253906 227.269531 213.601562 226.855469 213.941406 L 226.289062 213.941406 C 225.804688 212.859375 225.320312 211.773438 224.835938 210.691406 C 224.671875 210.320312 224.503906 209.953125 224.339844 209.582031 C 224.105469 209.054688 223.867188 208.523438 223.632812 207.992188 L 223.199219 207.027344 C 222.886719 206.292969 222.886719 206.292969 222.886719 206.007812 " fill-opacity="1" fill-rule="nonzero"/><path fill="#33344a" d="M 159.152344 60.359375 L 159.71875 60.359375 C 159.101562 61.765625 158.074219 62.539062 156.886719 63.476562 C 155.867188 64.214844 154.820312 64.910156 153.769531 65.601562 C 153.472656 65.796875 153.179688 65.992188 152.875 66.191406 C 151.945312 66.800781 151.019531 67.40625 150.085938 68.007812 L 149.203125 68.582031 C 136.332031 76.882812 136.332031 76.882812 130.824219 77.359375 C 129.765625 77.359375 128.738281 77.332031 127.707031 77.078125 C 127.195312 76.636719 127.195312 76.636719 126.859375 76.226562 L 127.523438 76.316406 C 130.285156 76.625 132.667969 76.417969 135.242188 75.359375 C 140.597656 73.003906 145.535156 69.980469 150.386719 66.730469 C 151.046875 66.289062 151.710938 65.851562 152.371094 65.410156 C 154.539062 63.96875 156.621094 62.507812 158.589844 60.796875 Z M 150.085938 228.113281 C 150.613281 228.089844 151.136719 228.085938 151.664062 228.09375 L 152.53125 228.101562 L 153.203125 228.113281 L 153.203125 228.394531 L 152.160156 228.484375 C 151.519531 228.621094 151.519531 228.621094 150.9375 228.960938 C 149.28125 231.261719 148.757812 234.523438 148.09375 237.234375 L 147.949219 237.824219 C 147.8125 238.375 147.675781 238.925781 147.546875 239.476562 L 147.253906 240.296875 L 146.40625 240.578125 L 146.121094 243.128906 L 145.273438 243.414062 L 145.164062 244.015625 C 144.746094 245.953125 143.910156 247.613281 143.003906 249.363281 L 142.722656 248.515625 C 142.878906 247.875 142.878906 247.875 143.15625 247.121094 L 143.46875 246.257812 L 143.8125 245.324219 L 144.164062 244.355469 C 144.535156 243.324219 144.914062 242.296875 145.289062 241.269531 C 145.777344 239.929688 146.265625 238.589844 146.75 237.25 L 147.109375 236.269531 C 147.882812 234.136719 148.625 231.996094 149.316406 229.835938 C 149.777344 228.421875 149.777344 228.421875 150.085938 228.113281 " fill-opacity="1" fill-rule="nonzero"/><path fill="#3c3e63" d="M 118.644531 56.109375 C 120.589844 56.144531 122.46875 56.316406 124.308594 56.957031 L 123.742188 57.808594 C 122.222656 57.667969 120.714844 57.519531 119.210938 57.242188 L 119.210938 57.808594 L 119.738281 57.972656 L 120.433594 58.199219 L 121.121094 58.417969 C 121.761719 58.65625 121.761719 58.65625 122.609375 59.222656 L 122.328125 60.074219 C 121.882812 60.289062 121.882812 60.289062 121.195312 60.359375 C 120.429688 60.296875 119.6875 60.1875 118.925781 60.074219 L 118.925781 60.640625 L 117.792969 60.359375 C 117.421875 58.691406 117.421875 58.691406 117.671875 57.8125 C 118.21875 56.53125 118.21875 56.53125 118.644531 56.109375 " fill-opacity="1" fill-rule="nonzero"/><path fill="#d4d7e3" d="M 188.046875 47.324219 L 189.179688 47.605469 L 188.613281 47.890625 C 188.40625 48.382812 188.40625 48.382812 188.242188 48.988281 C 187.628906 50.929688 186.980469 52.972656 185.496094 54.40625 C 185.214844 54.84375 184.941406 55.285156 184.683594 55.734375 C 184.160156 56.628906 183.625 57.507812 183.054688 58.375 C 181.898438 60.21875 181.152344 62.15625 180.964844 64.324219 L 180.398438 64.324219 C 180.210938 62.308594 180.777344 60.515625 181.53125 58.65625 C 182.542969 56.660156 183.78125 54.792969 185.105469 52.992188 C 186.367188 51.25 187.1875 49.285156 188.046875 47.324219 " fill-opacity="1" fill-rule="nonzero"/><path fill="#7f8097" d="M 124.308594 62.339844 L 125.160156 62.339844 L 125.726562 64.042969 L 125.441406 64.324219 L 126.007812 64.890625 C 125.777344 65.722656 125.777344 65.722656 125.441406 66.59375 C 124.703125 66.839844 124.222656 66.929688 123.460938 66.945312 L 122.875 66.96875 C 122.328125 66.875 122.328125 66.875 121.835938 66.527344 C 121.476562 66.023438 121.476562 66.023438 121.375 65.40625 L 121.386719 64.734375 L 121.390625 64.058594 L 121.476562 63.476562 L 122.042969 62.910156 C 122.714844 62.996094 122.714844 62.996094 123.460938 63.191406 L 124.113281 63.351562 L 124.59375 63.476562 Z M 124.308594 62.339844 " fill-opacity="1" fill-rule="nonzero"/><path fill="#d4d7e3" d="M 175.296875 56.390625 L 175.863281 56.390625 C 175.449219 57.285156 174.941406 58.042969 174.359375 58.835938 C 173.390625 60.203125 172.570312 61.65625 171.898438 63.191406 L 171.644531 63.765625 C 170.828125 65.875 170.488281 68.304688 170.484375 70.558594 C 170.625 71.382812 170.816406 72.085938 171.125 72.859375 C 171.332031 73.394531 171.332031 73.394531 171.332031 74.242188 L 170.765625 74.242188 C 169.910156 71.871094 169.242188 69.6875 169.632812 67.160156 C 170.578125 63.386719 172.269531 59.652344 174.878906 56.757812 Z M 171.332031 77.078125 L 171.898438 77.078125 L 172.261719 77.863281 C 173.636719 80.902344 173.636719 80.902344 175.863281 83.3125 C 176.636719 83.59375 177.316406 83.617188 178.132812 83.59375 L 179.421875 83.59375 L 180.066406 83.585938 C 180.679688 83.59375 180.679688 83.59375 181.726562 83.753906 C 182.6875 83.878906 183.421875 83.800781 184.363281 83.59375 L 184.363281 84.160156 C 182.964844 84.738281 181.933594 85.125 180.398438 85.011719 L 180.398438 84.160156 L 179.878906 84.398438 C 179.09375 84.699219 178.398438 84.902344 177.566406 85.011719 C 176.433594 84.78125 175.628906 84.3125 174.730469 83.59375 C 173.132812 81.871094 172.003906 79.898438 171.332031 77.644531 Z M 171.332031 77.078125 " fill-opacity="1" fill-rule="nonzero"/><path fill="#f6f7f9" d="M 172.75 69.425781 L 173.316406 69.425781 L 173.285156 70.246094 C 173.230469 72.8125 173.359375 75.035156 174.449219 77.410156 C 175.433594 79.167969 176.957031 80.613281 178.671875 81.65625 C 179.050781 81.847656 179.441406 82.015625 179.832031 82.175781 L 179.832031 82.742188 C 178.839844 82.652344 178.230469 82.53125 177.40625 81.953125 C 175.058594 79.761719 173.273438 77.660156 172.296875 74.558594 C 172.148438 73.785156 172.132812 73.046875 172.128906 72.257812 L 172.117188 71.375 C 172.183594 70.570312 172.335938 70.109375 172.75 69.425781 " fill-opacity="1" fill-rule="nonzero"/><path fill="#404266" d="M 112.695312 78.210938 L 112.414062 79.058594 L 111.84375 79.34375 L 112.128906 80.195312 L 113.546875 80.195312 L 114.113281 81.609375 C 112.347656 81.722656 111.164062 81.558594 109.5625 80.808594 C 108.996094 80.46875 108.585938 80.136719 108.164062 79.625 L 108.164062 79.058594 L 108.890625 78.953125 C 109.882812 78.789062 109.882812 78.789062 110.90625 78.476562 C 111.84375 78.210938 111.84375 78.210938 112.695312 78.210938 " fill-opacity="1" fill-rule="nonzero"/><path fill="#d4d7e3" d="M 186.628906 46.757812 L 187.480469 47.039062 C 187.332031 48.390625 186.960938 49.277344 186.238281 50.421875 L 185.941406 50.894531 C 184.777344 52.714844 183.484375 54.445312 182.183594 56.171875 C 181.792969 56.703125 181.421875 57.246094 181.046875 57.792969 L 180.398438 58.65625 L 179.832031 58.65625 C 180.195312 57.660156 180.621094 56.859375 181.25 56.003906 L 181.757812 55.300781 L 182.292969 54.566406 C 184.046875 52.109375 185.667969 49.640625 186.628906 46.757812 M 178.414062 45.90625 L 179.265625 46.191406 C 178.003906 49.0625 176.363281 51.554688 174.570312 54.121094 C 173.308594 55.945312 172.203125 57.742188 171.332031 59.792969 L 170.765625 59.792969 C 171.683594 56.558594 173.539062 53.894531 175.398438 51.136719 C 177.148438 48.644531 177.148438 48.644531 178.414062 45.90625 M 180.964844 64.324219 L 181.53125 64.609375 L 181.417969 65.070312 C 180.816406 67.726562 180.269531 70.835938 180.980469 73.515625 C 181.742188 75.582031 183.03125 77.304688 184.648438 78.777344 C 183.816406 78.679688 183.382812 78.40625 182.679688 77.925781 C 181.460938 76.855469 180.765625 75.472656 180.183594 73.976562 C 179.339844 71.148438 179.875 68.261719 180.46875 65.445312 L 180.679688 64.609375 Z M 182.378906 45.621094 L 182.945312 45.621094 C 182.800781 47.0625 182.308594 48.140625 181.566406 49.359375 L 181.230469 49.917969 C 180.085938 51.734375 178.714844 53.390625 177 54.691406 L 175.863281 54.691406 C 175.917969 54.175781 175.917969 54.175781 176.148438 53.558594 L 176.804688 53.171875 C 178.726562 51.996094 179.96875 49.714844 181.246094 47.890625 L 181.589844 47.40625 C 181.863281 47.007812 182.125 46.597656 182.378906 46.191406 Z M 182.378906 45.621094 " fill-opacity="1" fill-rule="nonzero"/><path fill="#9293ab" d="M 189.746094 48.171875 L 191.160156 48.738281 C 191.066406 50.746094 190.410156 52.015625 189.355469 53.699219 C 188.355469 55.320312 187.523438 56.847656 186.914062 58.65625 C 186.757812 58.140625 186.757812 58.140625 186.628906 57.523438 C 187.007812 56.097656 187.625 54.742188 188.1875 53.378906 L 188.453125 52.734375 C 189.128906 51.101562 189.128906 51.101562 189.507812 50.40625 L 189.746094 49.875 L 189.460938 49.308594 C 189.585938 48.703125 189.585938 48.703125 189.746094 48.171875 " fill-opacity="1" fill-rule="nonzero"/><path fill="#d4d7e3" d="M 182.097656 68.574219 L 182.664062 68.574219 L 182.726562 69.292969 C 182.917969 70.921875 183.113281 72.289062 184.027344 73.675781 C 185.308594 75.371094 186.816406 76.789062 188.613281 77.925781 C 189.40625 78.191406 189.40625 78.191406 190.027344 78.210938 L 189.746094 78.777344 C 188.761719 78.734375 188.054688 78.660156 187.195312 78.164062 C 186.605469 77.730469 186.050781 77.273438 185.496094 76.792969 L 184.953125 76.339844 C 183.777344 75.28125 183.132812 74.230469 182.601562 72.742188 C 182.234375 71.472656 181.9375 70.179688 181.8125 68.859375 Z M 182.097656 68.574219 " fill-opacity="1" fill-rule="nonzero"/><path fill="#454769" d="M 204.757812 61.207031 L 205.324219 61.207031 C 205.417969 63.046875 205.335938 64.640625 204.773438 66.398438 L 204.476562 66.875 C 203.898438 67.050781 203.898438 67.050781 203.34375 67.160156 C 203.015625 67.714844 203.015625 67.714844 202.777344 68.292969 L 202.210938 68.574219 L 202.226562 67.777344 C 202.253906 66.871094 202.253906 66.871094 201.925781 66.023438 L 202.339844 65.691406 C 202.519531 65.546875 202.699219 65.398438 202.882812 65.246094 L 203.417969 64.808594 C 203.945312 64.289062 204.203125 63.875 204.476562 63.191406 C 204.585938 62.53125 204.683594 61.871094 204.757812 61.207031 " fill-opacity="1" fill-rule="nonzero"/><path fill="#262951" d="M 185.78125 53.558594 L 186.347656 53.558594 C 186.050781 54.679688 185.601562 55.589844 185 56.566406 C 183.484375 59.035156 182.265625 61.617188 181.246094 64.324219 L 180.679688 63.757812 C 181.542969 60.636719 182.730469 58.203125 184.546875 55.546875 C 184.859375 55.078125 185.144531 54.59375 185.425781 54.105469 Z M 185.78125 53.558594 " fill-opacity="1" fill-rule="nonzero"/><path fill="#33344a" d="M 196.828125 66.023438 L 197.386719 66.160156 C 198.800781 66.472656 199.925781 66.6875 201.359375 66.308594 L 201.644531 67.726562 C 200.777344 68.304688 200.140625 68.476562 199.109375 68.585938 C 198.527344 68.574219 198.527344 68.574219 197.589844 68.203125 C 197.046875 67.863281 196.507812 67.515625 195.976562 67.160156 Z M 196.828125 66.023438 " fill-opacity="1" fill-rule="nonzero"/><path fill="#9193ab" d="M 179.546875 46.191406 L 180.113281 46.191406 C 180 47.972656 179.398438 49.242188 178.414062 50.722656 C 177.875 51.417969 177.308594 52.058594 176.714844 52.707031 L 175.863281 52.421875 L 176.714844 52.140625 C 176.816406 51.765625 176.910156 51.386719 177 51.007812 L 177.375 50.671875 C 178.058594 49.925781 178.375 49.042969 178.75 48.121094 L 178.984375 47.558594 C 179.175781 47.101562 179.363281 46.644531 179.546875 46.191406 " fill-opacity="1" fill-rule="nonzero"/><path fill="#9496ae" d="M 178.414062 45.90625 L 179.265625 46.191406 C 177.25 50.378906 177.25 50.378906 175.863281 52.140625 L 175.296875 51.855469 C 175.726562 50.660156 176.335938 49.628906 177.015625 48.5625 C 177.828125 47.292969 177.828125 47.292969 178.414062 45.90625 " fill-opacity="1" fill-rule="nonzero"/><path fill="#33344a" d="M 193.429688 81.894531 L 193.429688 82.460938 C 192.757812 82.699219 192.082031 82.9375 191.410156 83.167969 L 190.839844 83.375 C 189.679688 83.773438 188.722656 83.953125 187.480469 83.878906 L 187.195312 83.3125 C 188.746094 82.671875 190.066406 82.347656 191.726562 82.175781 C 192.292969 81.894531 192.292969 81.894531 193.429688 81.894531 " fill-opacity="1" fill-rule="nonzero"/><path fill="#9496ae" d="M 113.546875 65.457031 L 114.113281 65.457031 C 115.027344 68.035156 115.054688 70.414062 114.960938 73.109375 L 114.394531 73.109375 L 114.351562 72.117188 L 114.289062 70.808594 L 114.261719 70.152344 C 114.195312 68.863281 113.980469 67.816406 113.546875 66.59375 Z M 113.546875 65.457031 " fill-opacity="1" fill-rule="nonzero"/><path fill="#262951" d="M 123.027344 49.25 L 123.796875 49.269531 L 124.570312 49.285156 L 125.160156 49.308594 L 125.160156 50.441406 L 124.875 50.722656 C 124.304688 50.699219 123.730469 50.652344 123.160156 50.601562 L 122.210938 50.511719 L 121.476562 50.441406 L 121.476562 49.875 C 122.328125 49.308594 122.328125 49.308594 123.027344 49.25 " fill-opacity="1" fill-rule="nonzero"/><path fill="#33344a" d="M 162.835938 53.558594 L 163.402344 53.558594 C 163.03125 54.988281 162.535156 56.273438 161.859375 57.59375 L 161.601562 58.121094 C 161.164062 58.992188 160.753906 59.722656 160 60.359375 L 159.71875 59.792969 C 159.910156 59.308594 159.910156 59.308594 160.226562 58.730469 L 160.574219 58.097656 L 160.941406 57.4375 C 161.988281 55.542969 161.988281 55.542969 162.835938 53.558594 " fill-opacity="1" fill-rule="nonzero"/><path fill="#9496ae" d="M 174.730469 79.058594 C 175.441406 79.175781 175.839844 79.324219 176.410156 79.773438 L 176.960938 80.300781 C 177.878906 81.136719 178.691406 81.695312 179.832031 82.175781 L 179.832031 82.742188 C 179.074219 82.679688 179.074219 82.679688 178.132812 82.460938 C 177.367188 81.90625 177.367188 81.90625 176.644531 81.222656 L 175.914062 80.542969 C 175.296875 79.910156 175.296875 79.910156 174.730469 79.058594 " fill-opacity="1" fill-rule="nonzero"/><path fill="#d4d7e3" d="M 184.363281 83.59375 L 184.363281 84.160156 C 182.964844 84.738281 181.933594 85.125 180.398438 85.011719 L 180.398438 83.878906 L 182.085938 83.90625 C 182.894531 83.867188 183.535156 83.59375 184.363281 83.59375 " fill-opacity="1" fill-rule="nonzero"/><path fill="#33344a" d="M 115.8125 48.171875 C 116.273438 48.632812 116.726562 49.097656 117.175781 49.574219 C 117.890625 50.25 118.664062 50.761719 119.492188 51.289062 L 118.644531 51.574219 C 117.691406 51.144531 116.871094 50.570312 116.09375 49.875 C 115.792969 48.917969 115.792969 48.917969 115.8125 48.171875 M 160.285156 99.460938 L 161.136719 100.03125 C 161.332031 100.789062 161.492188 101.554688 161.613281 102.332031 L 161.722656 102.980469 C 161.8125 103.507812 161.898438 104.035156 161.984375 104.5625 L 161.417969 104.5625 C 161.226562 103.820312 161.039062 103.074219 160.851562 102.332031 L 160.6875 101.691406 C 160.285156 100.09375 160.285156 100.09375 160.285156 99.460938 M 166.234375 43.921875 C 166.78125 43.976562 166.78125 43.976562 167.367188 44.207031 C 167.722656 44.789062 167.722656 44.789062 167.933594 45.339844 L 166.234375 45.339844 L 165.667969 46.757812 L 165.101562 46.757812 C 165.234375 46.335938 165.371094 45.917969 165.507812 45.5 L 165.738281 44.792969 C 165.949219 44.207031 165.949219 44.207031 166.234375 43.921875 " fill-opacity="1" fill-rule="nonzero"/><path fill="#9496ae" d="M 180.679688 83.59375 L 180.398438 84.160156 C 179.78125 84.421875 179.78125 84.421875 179.015625 84.65625 L 178.257812 84.902344 L 177.566406 85.011719 L 176.714844 84.445312 L 176.714844 83.878906 C 178.039062 83.535156 179.324219 83.566406 180.679688 83.59375 " fill-opacity="1" fill-rule="nonzero"/><path fill="#9193a4" d="M 195.410156 73.109375 C 195.296875 73.765625 195.152344 74.203125 194.773438 74.757812 L 194.277344 75.09375 C 193.535156 75.039062 193.535156 75.039062 192.863281 74.808594 L 192.578125 74.242188 L 193.710938 74.242188 L 193.996094 73.394531 C 194.5625 73.109375 194.5625 73.109375 195.410156 73.109375 " fill-opacity="1" fill-rule="nonzero"/><path fill="#33344a" d="M 127.707031 48.171875 L 128.273438 48.171875 C 128.46875 48.652344 128.46875 48.652344 128.558594 49.308594 C 128.238281 50.03125 128.238281 50.03125 127.707031 50.722656 C 126.984375 51.238281 126.984375 51.238281 126.292969 51.574219 L 125.726562 51.574219 L 126.007812 50.722656 L 126.71875 50.351562 L 127.425781 49.875 C 127.679688 48.996094 127.679688 48.996094 127.707031 48.171875 " fill-opacity="1" fill-rule="nonzero"/><path fill="#9496ae" d="M 124.308594 62.339844 L 125.160156 62.339844 L 125.726562 64.042969 L 124.875 64.609375 C 124.113281 64.503906 124.113281 64.503906 123.460938 64.324219 L 123.742188 63.757812 L 124.59375 63.476562 Z M 124.308594 62.339844 " fill-opacity="1" fill-rule="nonzero"/><path fill="#fefefe" d="M 112.695312 78.210938 L 112.414062 79.058594 C 111.867188 79.285156 111.867188 79.285156 111.191406 79.433594 L 110.519531 79.589844 C 109.863281 79.625 109.863281 79.625 109.214844 79.355469 L 108.730469 79.058594 L 109.171875 78.953125 C 109.742188 78.808594 110.308594 78.644531 110.871094 78.476562 C 111.84375 78.210938 111.84375 78.210938 112.695312 78.210938 " fill-opacity="1" fill-rule="nonzero"/><path fill="#d4d7e3" d="M 197.109375 67.441406 L 200.792969 67.441406 C 199.941406 68.292969 199.941406 68.292969 199.269531 68.539062 C 198.527344 68.574219 198.527344 68.574219 197.730469 68.1875 L 197.109375 67.726562 Z M 109.296875 60.074219 L 109.863281 60.074219 C 110.109375 60.527344 110.351562 60.980469 110.589844 61.4375 L 110.996094 62.207031 C 111.089844 62.4375 111.183594 62.667969 111.277344 62.910156 L 110.996094 63.757812 C 110.105469 62.539062 109.648438 61.542969 109.296875 60.074219 " fill-opacity="1" fill-rule="nonzero"/><path fill="#9496ae" d="M 171.332031 77.078125 L 171.898438 77.078125 C 172.097656 77.484375 172.292969 77.890625 172.484375 78.296875 L 172.8125 78.984375 L 173.03125 79.625 L 172.75 80.476562 C 172.078125 79.742188 171.796875 79.089844 171.5625 78.140625 Z M 171.332031 77.078125 " fill-opacity="1" fill-rule="nonzero"/><path fill="#3c3e63" d="M 125.441406 62.625 L 126.292969 62.910156 L 126.574219 64.609375 L 125.160156 64.609375 Z M 125.441406 62.625 " fill-opacity="1" fill-rule="nonzero"/><path fill="#1a2961" d="M 168.214844 19.554688 L 168.5 19.554688 C 168.542969 20.351562 168.535156 20.882812 168.214844 21.625 L 167.933594 22.101562 L 167.367188 22.101562 C 167.441406 21.441406 167.535156 20.777344 167.648438 20.121094 Z M 168.214844 19.554688 " fill-opacity="1" fill-rule="nonzero"/><path fill="#3a3c62" d="M 123.742188 62.339844 C 124.34375 62.605469 124.34375 62.605469 124.875 62.910156 L 124.59375 63.757812 L 123.175781 63.191406 L 123.175781 62.625 Z M 123.742188 62.339844 " fill-opacity="1" fill-rule="nonzero"/><path fill="#d4d7e3" d="M 118.925781 62.910156 L 120.058594 63.191406 L 120.34375 64.890625 L 119.777344 64.890625 C 119.316406 64.21875 119.316406 64.21875 118.925781 63.476562 Z M 118.925781 62.910156 " fill-opacity="1" fill-rule="nonzero"/><path fill="#9496ae" d="M 176.148438 82.175781 L 178.132812 82.460938 L 177.847656 83.3125 C 177.265625 83.503906 177.265625 83.503906 176.714844 83.59375 Z M 176.148438 82.175781 " fill-opacity="1" fill-rule="nonzero"/></svg>