<svg xmlns="http://www.w3.org/2000/svg" xmlns:xlink="http://www.w3.org/1999/xlink" width="997" zoomAndPan="magnify" viewBox="0 0 747.75 187.499995" height="250" preserveAspectRatio="xMidYMid meet" version="1.0"><defs><clipPath id="293a0a5363"><path d="M 107.136719 0 L 640.359375 0 L 640.359375 187 L 107.136719 187 Z M 107.136719 0 " clip-rule="nonzero"/></clipPath></defs><g clip-path="url(#293a0a5363)"><path fill="#ffffff" d="M 107.136719 -133.335938 L 640.359375 -133.335938 L 640.359375 319.90625 L 107.136719 319.90625 Z M 107.136719 -133.335938 " fill-opacity="1" fill-rule="nonzero"/><path fill="#ffffff" d="M 107.136719 -133.335938 L 640.359375 -133.335938 L 640.359375 319.90625 L 107.136719 319.90625 Z M 107.136719 -133.335938 " fill-opacity="1" fill-rule="nonzero"/></g><path fill="#2b2751" d="M 238.03125 64.242188 L 245.417969 13.992188 L 254.3125 13.992188 L 244.808594 75.601562 L 230.378906 75.601562 L 220.875 13.992188 L 230.644531 13.992188 Z M 238.03125 64.242188 " fill-opacity="1" fill-rule="nonzero"/><path fill="#2b2751" d="M 267.605469 61.4375 C 267.605469 63.660156 268.058594 65.234375 268.957031 66.148438 C 269.871094 67.046875 271.089844 67.5 272.609375 67.5 C 274.144531 67.5 275.363281 67.046875 276.265625 66.148438 C 277.175781 65.234375 277.640625 63.660156 277.640625 61.4375 L 277.640625 28.15625 C 277.640625 25.921875 277.175781 24.34375 276.265625 23.445312 C 275.363281 22.53125 274.144531 22.070312 272.609375 22.070312 C 271.089844 22.070312 269.871094 22.53125 268.957031 23.445312 C 268.058594 24.34375 267.605469 25.921875 267.605469 28.15625 Z M 257.917969 28.765625 C 257.917969 23.777344 259.175781 19.945312 261.703125 17.277344 C 264.226562 14.617188 267.859375 13.277344 272.609375 13.277344 C 277.375 13.277344 281.015625 14.617188 283.542969 17.277344 C 286.066406 19.945312 287.332031 23.777344 287.332031 28.765625 L 287.332031 60.800781 C 287.332031 65.796875 286.066406 69.636719 283.542969 72.316406 C 281.015625 74.984375 277.375 76.316406 272.609375 76.316406 C 267.859375 76.316406 264.226562 74.984375 261.703125 72.316406 C 259.175781 69.636719 257.917969 65.796875 257.917969 60.800781 Z M 257.917969 28.765625 " fill-opacity="1" fill-rule="nonzero"/><path fill="#2b2751" d="M 321.65625 52.621094 L 321.65625 60.800781 C 321.65625 65.796875 320.4375 69.636719 318.003906 72.316406 C 315.566406 74.984375 311.964844 76.316406 307.199219 76.316406 C 302.449219 76.316406 298.863281 74.984375 296.425781 72.316406 C 293.988281 69.636719 292.773438 65.796875 292.773438 60.800781 L 292.773438 28.765625 C 292.773438 23.777344 293.988281 19.945312 296.425781 17.277344 C 298.863281 14.617188 302.449219 13.277344 307.199219 13.277344 C 311.964844 13.277344 315.566406 14.617188 318.003906 17.277344 C 320.4375 19.945312 321.65625 23.777344 321.65625 28.765625 L 321.65625 34.75 L 312.496094 34.75 L 312.496094 28.15625 C 312.496094 25.921875 312.03125 24.34375 311.121094 23.445312 C 310.21875 22.53125 309 22.070312 307.464844 22.070312 C 305.945312 22.070312 304.726562 22.53125 303.8125 23.445312 C 302.910156 24.34375 302.460938 25.921875 302.460938 28.15625 L 302.460938 61.4375 C 302.460938 63.660156 302.910156 65.214844 303.8125 66.09375 C 304.726562 66.980469 305.945312 67.417969 307.464844 67.417969 C 309 67.417969 310.21875 66.980469 311.121094 66.09375 C 312.03125 65.214844 312.496094 63.660156 312.496094 61.4375 L 312.496094 52.621094 Z M 321.65625 52.621094 " fill-opacity="1" fill-rule="nonzero"/><path fill="#2b2751" d="M 337.230469 39.9375 L 350.519531 39.9375 L 350.519531 48.753906 L 337.230469 48.753906 L 337.230469 66.808594 L 353.9375 66.808594 L 353.9375 75.601562 L 327.542969 75.601562 L 327.542969 13.992188 L 353.9375 13.992188 L 353.9375 22.785156 L 337.230469 22.785156 Z M 328.414062 10.710938 L 336.25 0.941406 L 344.960938 0.941406 L 352.796875 10.710938 L 344.539062 10.710938 L 340.566406 5.890625 L 336.703125 10.710938 Z M 328.414062 10.710938 " fill-opacity="1" fill-rule="nonzero"/><path fill="#2b2751" d="M 146.527344 108.410156 L 146.527344 153.042969 L 137.816406 153.042969 L 137.816406 91.4375 L 149.96875 91.4375 L 159.898438 128.316406 L 159.898438 91.4375 L 168.527344 91.4375 L 168.527344 153.042969 L 158.574219 153.042969 Z M 146.527344 108.410156 " fill-opacity="1" fill-rule="nonzero"/><path fill="#2b2751" d="M 184.375 138.878906 C 184.375 141.105469 184.828125 142.679688 185.726562 143.59375 C 186.640625 144.492188 187.859375 144.945312 189.378906 144.945312 C 190.914062 144.945312 192.132812 144.492188 193.035156 143.59375 C 193.945312 142.679688 194.410156 141.105469 194.410156 138.878906 L 194.410156 105.601562 C 194.410156 103.367188 193.945312 101.789062 193.035156 100.890625 C 192.132812 99.976562 190.914062 99.511719 189.378906 99.511719 C 187.859375 99.511719 186.640625 99.976562 185.726562 100.890625 C 184.828125 101.789062 184.375 103.367188 184.375 105.601562 Z M 174.6875 106.210938 C 174.6875 101.222656 175.945312 97.390625 178.472656 94.722656 C 180.996094 92.0625 184.628906 90.722656 189.378906 90.722656 C 194.144531 90.722656 197.785156 92.0625 200.3125 94.722656 C 202.835938 97.390625 204.101562 101.222656 204.101562 106.210938 L 204.101562 138.246094 C 204.101562 143.242188 202.835938 147.082031 200.3125 149.761719 C 197.785156 152.429688 194.144531 153.757812 189.378906 153.757812 C 184.628906 153.757812 180.996094 152.429688 178.472656 149.761719 C 175.945312 147.082031 174.6875 143.242188 174.6875 138.246094 Z M 174.6875 106.210938 " fill-opacity="1" fill-rule="nonzero"/><path fill="#2b2751" d="M 244.496094 135.175781 L 251.089844 91.4375 L 264.566406 91.4375 L 264.566406 153.042969 L 255.40625 153.042969 L 255.40625 108.859375 L 248.707031 153.042969 L 239.574219 153.042969 L 232.34375 109.46875 L 232.34375 153.042969 L 223.898438 153.042969 L 223.898438 91.4375 L 237.347656 91.4375 Z M 244.496094 135.175781 " fill-opacity="1" fill-rule="nonzero"/><path fill="#2b2751" d="M 280.492188 138.878906 C 280.492188 141.105469 280.941406 142.679688 281.84375 143.59375 C 282.757812 144.492188 283.972656 144.945312 285.496094 144.945312 C 287.03125 144.945312 288.25 144.492188 289.148438 143.59375 C 290.0625 142.679688 290.527344 141.105469 290.527344 138.878906 L 290.527344 105.601562 C 290.527344 103.367188 290.0625 101.789062 289.148438 100.890625 C 288.25 99.976562 287.03125 99.511719 285.496094 99.511719 C 283.972656 99.511719 282.757812 99.976562 281.84375 100.890625 C 280.941406 101.789062 280.492188 103.367188 280.492188 105.601562 Z M 270.804688 106.210938 C 270.804688 101.222656 272.058594 97.390625 274.589844 94.722656 C 277.109375 92.0625 280.742188 90.722656 285.496094 90.722656 C 290.261719 90.722656 293.902344 92.0625 296.429688 94.722656 C 298.953125 97.390625 300.214844 101.222656 300.214844 106.210938 L 300.214844 138.246094 C 300.214844 143.242188 298.953125 147.082031 296.429688 149.761719 C 293.902344 152.429688 290.261719 153.757812 285.496094 153.757812 C 280.742188 153.757812 277.109375 152.429688 274.589844 149.761719 C 272.058594 147.082031 270.804688 143.242188 270.804688 138.246094 Z M 270.804688 106.210938 " fill-opacity="1" fill-rule="nonzero"/><path fill="#2b2751" d="M 306.453125 91.4375 L 321.78125 91.4375 C 326.652344 91.4375 330.265625 92.730469 332.636719 95.304688 C 335.019531 97.886719 336.210938 101.671875 336.210938 106.660156 L 336.210938 137.820312 C 336.210938 142.800781 335.019531 146.585938 332.636719 149.179688 C 330.265625 151.761719 326.652344 153.042969 321.78125 153.042969 L 306.453125 153.042969 Z M 316.140625 100.226562 L 316.140625 144.253906 L 321.59375 144.253906 C 323.109375 144.253906 324.308594 143.816406 325.195312 142.929688 C 326.078125 142.050781 326.519531 140.488281 326.519531 138.246094 L 326.519531 106.210938 C 326.519531 103.988281 326.078125 102.4375 325.195312 101.550781 C 324.308594 100.671875 323.109375 100.226562 321.59375 100.226562 Z M 316.140625 100.226562 " fill-opacity="1" fill-rule="nonzero"/><path fill="#2b2751" d="M 351.257812 138.878906 C 351.257812 141.105469 351.710938 142.679688 352.609375 143.59375 C 353.523438 144.492188 354.742188 144.945312 356.261719 144.945312 C 357.796875 144.945312 359.015625 144.492188 359.917969 143.59375 C 360.828125 142.679688 361.292969 141.105469 361.292969 138.878906 L 361.292969 105.601562 C 361.292969 103.367188 360.828125 101.789062 359.917969 100.890625 C 359.015625 99.976562 357.796875 99.511719 356.261719 99.511719 C 354.742188 99.511719 353.523438 99.976562 352.609375 100.890625 C 351.710938 101.789062 351.257812 103.367188 351.257812 105.601562 Z M 341.570312 106.210938 C 341.570312 101.222656 342.828125 97.390625 345.355469 94.722656 C 347.875 92.0625 351.511719 90.722656 356.261719 90.722656 C 361.027344 90.722656 364.667969 92.0625 367.195312 94.722656 C 369.71875 97.390625 370.984375 101.222656 370.984375 106.210938 L 370.984375 138.246094 C 370.984375 143.242188 369.71875 147.082031 367.195312 149.761719 C 364.667969 152.429688 361.027344 153.757812 356.261719 153.757812 C 351.511719 153.757812 347.875 152.429688 345.355469 149.761719 C 342.828125 147.082031 341.570312 143.242188 341.570312 138.246094 Z M 341.570312 106.210938 " fill-opacity="1" fill-rule="nonzero"/><path fill="#2b2751" d="M 442.164062 4.195312 C 441.753906 4.269531 440.417969 4.476562 439.191406 4.660156 C 434.15625 5.402344 428.628906 7.84375 424.261719 11.257812 C 420.632812 14.085938 417.933594 17.460938 415.683594 21.976562 C 413.539062 26.269531 412.453125 30.097656 411.890625 35.316406 C 411.0625 43.074219 412.480469 50.945312 415.933594 57.707031 C 420.554688 66.769531 428.765625 72.691406 439.191406 74.488281 C 443.488281 75.226562 451.410156 74.957031 455.226562 73.945312 C 465.0625 71.335938 472.429688 65.285156 476.582031 56.398438 C 479.023438 51.175781 479.816406 47.648438 480.035156 41.089844 C 480.214844 35.609375 479.828125 32.242188 478.492188 27.640625 C 475.019531 15.667969 465.824219 7.207031 453.601562 4.746094 C 451.523438 4.328125 443.59375 3.945312 442.164062 4.195312 M 442.605469 11.570312 C 436.734375 12.703125 432.625 16 429.714844 21.894531 C 427.230469 26.917969 426.144531 32.320312 426.144531 39.613281 C 426.152344 46.363281 427.238281 51.871094 429.527344 56.675781 C 433.089844 64.140625 438.46875 67.777344 445.996094 67.789062 C 456.003906 67.808594 462.851562 60.714844 465.175781 47.925781 C 465.871094 44.101562 465.878906 35.484375 465.195312 31.765625 C 463.585938 23.035156 460.324219 17.15625 455.308594 13.925781 C 451.878906 11.722656 446.738281 10.769531 442.605469 11.570312 M 486.050781 47.183594 L 486.050781 74.320312 L 495.839844 74.320312 L 495.839844 56.808594 C 495.839844 41.921875 495.898438 39.328125 496.25 39.535156 C 496.480469 39.660156 497.707031 40.707031 498.984375 41.84375 C 509.277344 51.050781 520.582031 62.539062 527.234375 70.535156 L 530.375 74.320312 L 540.03125 74.320312 L 540.03125 20.050781 L 530.25 20.050781 L 530.089844 55.074219 L 527.867188 53.09375 C 522.035156 47.886719 519.5 45.492188 513.015625 39.023438 C 506.335938 32.371094 500.8125 26.382812 497.335938 22.046875 L 495.734375 20.050781 L 486.050781 20.050781 Z M 439.933594 92.316406 C 433.84375 92.855469 428.527344 94.347656 423.027344 97.078125 C 410.300781 103.382812 401.328125 114.933594 398.234375 128.957031 C 397.355469 132.957031 397.144531 140.71875 397.796875 145.132812 C 399.28125 155.222656 403.683594 163.898438 410.984375 171.152344 C 414.675781 174.824219 418.242188 177.367188 423.027344 179.742188 C 427.265625 181.839844 429.914062 182.792969 434.347656 183.804688 L 437.265625 184.46875 L 474.046875 184.574219 C 500.222656 184.648438 511.671875 184.582031 513.777344 184.34375 C 533.28125 182.117188 549.503906 167.476562 553.640625 148.382812 C 556.355469 135.875 553.964844 123.320312 546.824219 112.5625 C 544.308594 108.769531 538.191406 102.675781 534.394531 100.160156 C 527.609375 95.667969 520.839844 93.242188 512.789062 92.421875 C 509.972656 92.140625 443.097656 92.039062 439.933594 92.316406 M 438.304688 99.683594 C 425.457031 101.476562 414.191406 109.636719 408.414062 121.328125 C 405.808594 126.601562 404.808594 130.710938 404.589844 137.046875 C 404.402344 142.507812 404.800781 145.570312 406.324219 150.355469 C 408.277344 156.519531 411.613281 161.800781 416.507812 166.503906 C 421.101562 170.921875 425.96875 173.84375 431.777344 175.6875 C 437.75 177.578125 436.589844 177.527344 475.945312 177.527344 C 506.054688 177.527344 512.128906 177.460938 514.378906 177.089844 C 527.039062 175.011719 537.503906 167.457031 543.222656 156.265625 C 546.28125 150.285156 547.5 145.351562 547.546875 138.828125 C 547.585938 133.359375 546.738281 128.738281 544.8125 123.914062 C 539.542969 110.703125 526.953125 101.1875 512.59375 99.546875 C 508.355469 99.054688 441.890625 99.1875 438.304688 99.683594 M 500.832031 108.101562 C 489.796875 110.503906 481.234375 118.191406 477.632812 128.917969 C 476.460938 132.40625 475.886719 137.589844 476.277344 141.136719 C 476.898438 146.796875 478.414062 151.117188 481.292969 155.480469 C 492.300781 172.117188 516.09375 174.214844 529.742188 159.746094 C 533.375 155.894531 536.09375 151 537.40625 145.941406 C 538.378906 142.1875 538.398438 134.675781 537.445312 131.089844 C 534.421875 119.671875 526.238281 111.425781 514.894531 108.375 C 511.53125 107.472656 504.363281 107.335938 500.832031 108.101562 M 504.148438 131.289062 C 502.503906 132.027344 501.035156 133.398438 500.195312 134.96875 C 499.300781 136.640625 499.300781 140.109375 500.195312 141.804688 C 503.453125 147.953125 512.128906 147.503906 514.558594 141.0625 C 516.035156 137.132812 513.824219 132.484375 509.820312 131.121094 C 507.980469 130.492188 505.75 130.558594 504.148438 131.289062 " fill-opacity="1" fill-rule="evenodd"/></svg>